<?xml version="1.0" encoding="UTF-8" standalone="no"?>
<!DOCTYPE svg PUBLIC "-//W3C//DTD SVG 1.1//EN"
 "http://www.w3.org/Graphics/SVG/1.1/DTD/svg11.dtd">
<!-- Generated by graphviz version 2.47.0 (20210316.0004)
 -->
<!-- Title: dependencies Pages: 1 -->
<svg width="504pt" height="284pt"
 viewBox="0.00 0.00 504.00 284.00" xmlns="http://www.w3.org/2000/svg" xmlns:xlink="http://www.w3.org/1999/xlink">
<g id="graph0" class="graph" transform="scale(1 1) rotate(0) translate(4 280)">
<title>dependencies</title>
<polygon fill="white" stroke="transparent" points="-4,4 -4,-280 500,-280 500,4 -4,4"/>
<text text-anchor="start" x="227.01" y="-42.4" font-family="Times-12" font-weight="bold" font-size="14.00">Legend</text>
<polygon fill="#ffffb3" stroke="transparent" points="14,-10 14,-30 34,-30 34,-10 14,-10"/>
<text text-anchor="start" x="37.63" y="-15.4" font-family="Times-12" font-size="14.00"> &#160;Declarations</text>
<polygon fill="#8dd3c7" stroke="transparent" points="127,-10 127,-30 147,-30 147,-10 127,-10"/>
<text text-anchor="start" x="150.73" y="-15.4" font-family="Times-12" font-size="14.00"> &#160;Module</text>
<polygon fill="#80b1d3" stroke="transparent" points="213,-10 213,-30 233,-30 233,-10 213,-10"/>
<text text-anchor="start" x="236.78" y="-15.4" font-family="Times-12" font-size="14.00"> &#160;Bootstrap</text>
<polygon fill="#fdb462" stroke="transparent" points="310,-10 310,-30 330,-30 330,-10 310,-10"/>
<text text-anchor="start" x="333.67" y="-15.4" font-family="Times-12" font-size="14.00"> &#160;Providers</text>
<polygon fill="#fb8072" stroke="transparent" points="406,-10 406,-30 426,-30 426,-10 406,-10"/>
<text text-anchor="start" x="429.73" y="-15.4" font-family="Times-12" font-size="14.00"> &#160;Exports</text>
<g id="clust1" class="cluster">
<title>cluster_AcquireModule</title>
<polygon fill="none" stroke="black" stroke-dasharray="1,5" points="83,-70 83,-268 413,-268 413,-70 83,-70"/>
</g>
<g id="clust4" class="cluster">
<title>cluster_AcquireModule_exports</title>
<polygon fill="none" stroke="black" points="189,-208 189,-260 311,-260 311,-208 189,-208"/>
</g>
<g id="clust3" class="cluster">
<title>cluster_AcquireModule_imports</title>
<polygon fill="none" stroke="black" points="257,-78 257,-130 405,-130 405,-78 257,-78"/>
</g>
<g id="clust6" class="cluster">
<title>cluster_AcquireModule_providers</title>
<polygon fill="none" stroke="black" points="91,-78 91,-130 249,-130 249,-78 91,-78"/>
</g>
<!-- TransactionsModule -->
<g id="node1" class="node">
<title>TransactionsModule</title>
<polygon fill="#8dd3c7" stroke="black" points="396.58,-122 393.58,-126 372.58,-126 369.58,-122 265.42,-122 265.42,-86 396.58,-86 396.58,-122"/>
<text text-anchor="middle" x="331" y="-99.8" font-family="Times,serif" font-size="14.00">TransactionsModule</text>
</g>
<!-- AcquireModule -->
<g id="node2" class="node">
<title>AcquireModule</title>
<polygon fill="#8dd3c7" stroke="black" points="302.14,-187 299.14,-191 278.14,-191 275.14,-187 197.86,-187 197.86,-151 302.14,-151 302.14,-187"/>
<text text-anchor="middle" x="250" y="-164.8" font-family="Times,serif" font-size="14.00">AcquireModule</text>
</g>
<!-- TransactionsModule&#45;&gt;AcquireModule -->
<g id="edge1" class="edge">
<title>TransactionsModule&#45;&gt;AcquireModule</title>
<path fill="none" stroke="black" d="M283.89,-122.11C283.89,-122.11 283.89,-140.99 283.89,-140.99"/>
<polygon fill="black" stroke="black" points="280.39,-140.99 283.89,-150.99 287.39,-140.99 280.39,-140.99"/>
</g>
<!-- AcquireService  -->
<g id="node3" class="node">
<title>AcquireService </title>
<polygon fill="#fb8072" stroke="black" points="303.07,-252 196.93,-252 196.93,-216 303.07,-216 303.07,-252"/>
<text text-anchor="middle" x="250" y="-229.8" font-family="Times,serif" font-size="14.00">AcquireService </text>
</g>
<!-- AcquireModule&#45;&gt;AcquireService  -->
<g id="edge2" class="edge">
<title>AcquireModule&#45;&gt;AcquireService </title>
<path fill="none" stroke="black" stroke-dasharray="5,2" d="M250,-187.11C250,-187.11 250,-205.99 250,-205.99"/>
<polygon fill="black" stroke="black" points="246.5,-205.99 250,-215.99 253.5,-205.99 246.5,-205.99"/>
</g>
<!-- AcquireService -->
<g id="node4" class="node">
<title>AcquireService</title>
<ellipse fill="#fdb462" stroke="black" cx="170" cy="-104" rx="71.18" ry="18"/>
<text text-anchor="middle" x="170" y="-99.8" font-family="Times,serif" font-size="14.00">AcquireService</text>
</g>
<!-- AcquireService&#45;&gt;AcquireModule -->
<g id="edge3" class="edge">
<title>AcquireService&#45;&gt;AcquireModule</title>
<path fill="none" stroke="black" d="M219.39,-117.15C219.39,-117.15 219.39,-140.69 219.39,-140.69"/>
<polygon fill="black" stroke="black" points="215.89,-140.69 219.39,-150.69 222.89,-140.69 215.89,-140.69"/>
</g>
</g>
</svg>
