<?xml version="1.0" encoding="UTF-8" standalone="no"?>
<!DOCTYPE svg PUBLIC "-//W3C//DTD SVG 1.1//EN"
 "http://www.w3.org/Graphics/SVG/1.1/DTD/svg11.dtd">
<!-- Generated by graphviz version 2.47.0 (20210316.0004)
 -->
<!-- Title: dependencies Pages: 1 -->
<svg width="1494pt" height="284pt"
 viewBox="0.00 0.00 1494.00 284.00" xmlns="http://www.w3.org/2000/svg" xmlns:xlink="http://www.w3.org/1999/xlink">
<g id="graph0" class="graph" transform="scale(1 1) rotate(0) translate(4 280)">
<title>dependencies</title>
<polygon fill="white" stroke="transparent" points="-4,4 -4,-280 1490,-280 1490,4 -4,4"/>
<text text-anchor="start" x="722.01" y="-42.4" font-family="Times-12" font-weight="bold" font-size="14.00">Legend</text>
<polygon fill="#ffffb3" stroke="transparent" points="509,-10 509,-30 529,-30 529,-10 509,-10"/>
<text text-anchor="start" x="532.63" y="-15.4" font-family="Times-12" font-size="14.00"> &#160;Declarations</text>
<polygon fill="#8dd3c7" stroke="transparent" points="622,-10 622,-30 642,-30 642,-10 622,-10"/>
<text text-anchor="start" x="645.73" y="-15.4" font-family="Times-12" font-size="14.00"> &#160;Module</text>
<polygon fill="#80b1d3" stroke="transparent" points="708,-10 708,-30 728,-30 728,-10 708,-10"/>
<text text-anchor="start" x="731.78" y="-15.4" font-family="Times-12" font-size="14.00"> &#160;Bootstrap</text>
<polygon fill="#fdb462" stroke="transparent" points="805,-10 805,-30 825,-30 825,-10 805,-10"/>
<text text-anchor="start" x="828.67" y="-15.4" font-family="Times-12" font-size="14.00"> &#160;Providers</text>
<polygon fill="#fb8072" stroke="transparent" points="901,-10 901,-30 921,-30 921,-10 901,-10"/>
<text text-anchor="start" x="924.73" y="-15.4" font-family="Times-12" font-size="14.00"> &#160;Exports</text>
<g id="clust1" class="cluster">
<title>cluster_BlockchainModule</title>
<polygon fill="none" stroke="black" stroke-dasharray="1,5" points="8,-70 8,-268 1478,-268 1478,-70 8,-70"/>
</g>
<g id="clust3" class="cluster">
<title>cluster_BlockchainModule_imports</title>
<polygon fill="none" stroke="black" points="1322,-78 1322,-130 1470,-130 1470,-78 1322,-78"/>
</g>
<g id="clust4" class="cluster">
<title>cluster_BlockchainModule_exports</title>
<polygon fill="none" stroke="black" points="355,-208 355,-260 1214,-260 1214,-208 355,-208"/>
</g>
<g id="clust6" class="cluster">
<title>cluster_BlockchainModule_providers</title>
<polygon fill="none" stroke="black" points="16,-78 16,-130 1314,-130 1314,-78 16,-78"/>
</g>
<!-- TransactionsModule -->
<g id="node1" class="node">
<title>TransactionsModule</title>
<polygon fill="#8dd3c7" stroke="black" points="1461.58,-122 1458.58,-126 1437.58,-126 1434.58,-122 1330.42,-122 1330.42,-86 1461.58,-86 1461.58,-122"/>
<text text-anchor="middle" x="1396" y="-99.8" font-family="Times,serif" font-size="14.00">TransactionsModule</text>
</g>
<!-- BlockchainModule -->
<g id="node2" class="node">
<title>BlockchainModule</title>
<polygon fill="#8dd3c7" stroke="black" points="864.81,-187 861.81,-191 840.81,-191 837.81,-187 741.19,-187 741.19,-151 864.81,-151 864.81,-187"/>
<text text-anchor="middle" x="803" y="-164.8" font-family="Times,serif" font-size="14.00">BlockchainModule</text>
</g>
<!-- TransactionsModule&#45;&gt;BlockchainModule -->
<g id="edge1" class="edge">
<title>TransactionsModule&#45;&gt;BlockchainModule</title>
<path fill="none" stroke="black" d="M1396,-122.11C1396,-141.34 1396,-169 1396,-169 1396,-169 874.78,-169 874.78,-169"/>
<polygon fill="black" stroke="black" points="874.78,-165.5 864.78,-169 874.78,-172.5 874.78,-165.5"/>
</g>
<!-- BlockchainScannerService  -->
<g id="node3" class="node">
<title>BlockchainScannerService </title>
<polygon fill="#fb8072" stroke="black" points="1206.33,-252 1035.67,-252 1035.67,-216 1206.33,-216 1206.33,-252"/>
<text text-anchor="middle" x="1121" y="-229.8" font-family="Times,serif" font-size="14.00">BlockchainScannerService </text>
</g>
<!-- BlockchainModule&#45;&gt;BlockchainScannerService  -->
<g id="edge2" class="edge">
<title>BlockchainModule&#45;&gt;BlockchainScannerService </title>
<path fill="none" stroke="black" stroke-dasharray="5,2" d="M864.99,-175C948.13,-175 1085.46,-175 1085.46,-175 1085.46,-175 1085.46,-205.98 1085.46,-205.98"/>
<polygon fill="black" stroke="black" points="1081.96,-205.98 1085.46,-215.98 1088.96,-205.98 1081.96,-205.98"/>
</g>
<!-- BlockchainService  -->
<g id="node4" class="node">
<title>BlockchainService </title>
<polygon fill="#fb8072" stroke="black" points="1017.74,-252 892.26,-252 892.26,-216 1017.74,-216 1017.74,-252"/>
<text text-anchor="middle" x="955" y="-229.8" font-family="Times,serif" font-size="14.00">BlockchainService </text>
</g>
<!-- BlockchainModule&#45;&gt;BlockchainService  -->
<g id="edge3" class="edge">
<title>BlockchainModule&#45;&gt;BlockchainService </title>
<path fill="none" stroke="black" stroke-dasharray="5,2" d="M864.66,-181C883.17,-181 898.65,-181 898.65,-181 898.65,-181 898.65,-205.76 898.65,-205.76"/>
<polygon fill="black" stroke="black" points="895.15,-205.76 898.65,-215.76 902.15,-205.76 895.15,-205.76"/>
</g>
<!-- VaultInsertingService  -->
<g id="node5" class="node">
<title>VaultInsertingService </title>
<polygon fill="#fb8072" stroke="black" points="874.34,-252 731.66,-252 731.66,-216 874.34,-216 874.34,-252"/>
<text text-anchor="middle" x="803" y="-229.8" font-family="Times,serif" font-size="14.00">VaultInsertingService </text>
</g>
<!-- BlockchainModule&#45;&gt;VaultInsertingService  -->
<g id="edge4" class="edge">
<title>BlockchainModule&#45;&gt;VaultInsertingService </title>
<path fill="none" stroke="black" stroke-dasharray="5,2" d="M803,-187.11C803,-187.11 803,-205.99 803,-205.99"/>
<polygon fill="black" stroke="black" points="799.5,-205.99 803,-215.99 806.5,-205.99 799.5,-205.99"/>
</g>
<!-- VaultManagingService  -->
<g id="node6" class="node">
<title>VaultManagingService </title>
<polygon fill="#fb8072" stroke="black" points="713.84,-252 564.16,-252 564.16,-216 713.84,-216 713.84,-252"/>
<text text-anchor="middle" x="639" y="-229.8" font-family="Times,serif" font-size="14.00">VaultManagingService </text>
</g>
<!-- BlockchainModule&#45;&gt;VaultManagingService  -->
<g id="edge5" class="edge">
<title>BlockchainModule&#45;&gt;VaultManagingService </title>
<path fill="none" stroke="black" stroke-dasharray="5,2" d="M741.26,-181C722.73,-181 707.22,-181 707.22,-181 707.22,-181 707.22,-205.76 707.22,-205.76"/>
<polygon fill="black" stroke="black" points="703.72,-205.76 707.22,-215.76 710.72,-205.76 703.72,-205.76"/>
</g>
<!-- WebhookVerificationService  -->
<g id="node7" class="node">
<title>WebhookVerificationService </title>
<polygon fill="#fb8072" stroke="black" points="546.54,-252 363.46,-252 363.46,-216 546.54,-216 546.54,-252"/>
<text text-anchor="middle" x="455" y="-229.8" font-family="Times,serif" font-size="14.00">WebhookVerificationService </text>
</g>
<!-- BlockchainModule&#45;&gt;WebhookVerificationService  -->
<g id="edge6" class="edge">
<title>BlockchainModule&#45;&gt;WebhookVerificationService </title>
<path fill="none" stroke="black" stroke-dasharray="5,2" d="M741.28,-175C660.21,-175 528,-175 528,-175 528,-175 528,-205.98 528,-205.98"/>
<polygon fill="black" stroke="black" points="524.5,-205.98 528,-215.98 531.5,-205.98 524.5,-205.98"/>
</g>
<!-- AnvilApiService -->
<g id="node8" class="node">
<title>AnvilApiService</title>
<ellipse fill="#fdb462" stroke="black" cx="1230" cy="-104" rx="76.44" ry="18"/>
<text text-anchor="middle" x="1230" y="-99.8" font-family="Times,serif" font-size="14.00">AnvilApiService</text>
</g>
<!-- AnvilApiService&#45;&gt;BlockchainModule -->
<g id="edge7" class="edge">
<title>AnvilApiService&#45;&gt;BlockchainModule</title>
<path fill="none" stroke="black" d="M1179.85,-117.68C1179.85,-135.11 1179.85,-163 1179.85,-163 1179.85,-163 874.81,-163 874.81,-163"/>
<polygon fill="black" stroke="black" points="874.81,-159.5 864.81,-163 874.81,-166.5 874.81,-159.5"/>
</g>
<!-- BlockchainScannerService -->
<g id="node9" class="node">
<title>BlockchainScannerService</title>
<ellipse fill="#fdb462" stroke="black" cx="1020" cy="-104" rx="115.15" ry="18"/>
<text text-anchor="middle" x="1020" y="-99.8" font-family="Times,serif" font-size="14.00">BlockchainScannerService</text>
</g>
<!-- BlockchainScannerService&#45;&gt;BlockchainModule -->
<g id="edge8" class="edge">
<title>BlockchainScannerService&#45;&gt;BlockchainModule</title>
<path fill="none" stroke="black" d="M961.27,-119.62C961.27,-135.25 961.27,-157 961.27,-157 961.27,-157 875.1,-157 875.1,-157"/>
<polygon fill="black" stroke="black" points="875.1,-153.5 865.1,-157 875.1,-160.5 875.1,-153.5"/>
</g>
<!-- BlockchainService -->
<g id="node10" class="node">
<title>BlockchainService</title>
<ellipse fill="#fdb462" stroke="black" cx="803" cy="-104" rx="83.95" ry="18"/>
<text text-anchor="middle" x="803" y="-99.8" font-family="Times,serif" font-size="14.00">BlockchainService</text>
</g>
<!-- BlockchainService&#45;&gt;BlockchainModule -->
<g id="edge9" class="edge">
<title>BlockchainService&#45;&gt;BlockchainModule</title>
<path fill="none" stroke="black" d="M803,-122.11C803,-122.11 803,-140.99 803,-140.99"/>
<polygon fill="black" stroke="black" points="799.5,-140.99 803,-150.99 806.5,-140.99 799.5,-140.99"/>
</g>
<!-- VaultInsertingService -->
<g id="node11" class="node">
<title>VaultInsertingService</title>
<ellipse fill="#fdb462" stroke="black" cx="605" cy="-104" rx="95.54" ry="18"/>
<text text-anchor="middle" x="605" y="-99.8" font-family="Times,serif" font-size="14.00">VaultInsertingService</text>
</g>
<!-- VaultInsertingService&#45;&gt;BlockchainModule -->
<g id="edge10" class="edge">
<title>VaultInsertingService&#45;&gt;BlockchainModule</title>
<path fill="none" stroke="black" d="M632.55,-121.35C632.55,-136.81 632.55,-157 632.55,-157 632.55,-157 730.98,-157 730.98,-157"/>
<polygon fill="black" stroke="black" points="730.98,-160.5 740.98,-157 730.98,-153.5 730.98,-160.5"/>
</g>
<!-- VaultManagingService -->
<g id="node12" class="node">
<title>VaultManagingService</title>
<ellipse fill="#fdb462" stroke="black" cx="391" cy="-104" rx="100.7" ry="18"/>
<text text-anchor="middle" x="391" y="-99.8" font-family="Times,serif" font-size="14.00">VaultManagingService</text>
</g>
<!-- VaultManagingService&#45;&gt;BlockchainModule -->
<g id="edge11" class="edge">
<title>VaultManagingService&#45;&gt;BlockchainModule</title>
<path fill="none" stroke="black" d="M427.42,-121.07C427.42,-138.49 427.42,-163 427.42,-163 427.42,-163 730.98,-163 730.98,-163"/>
<polygon fill="black" stroke="black" points="730.98,-166.5 740.98,-163 730.98,-159.5 730.98,-166.5"/>
</g>
<!-- WebhookVerificationService -->
<g id="node13" class="node">
<title>WebhookVerificationService</title>
<ellipse fill="#fdb462" stroke="black" cx="148" cy="-104" rx="124.38" ry="18"/>
<text text-anchor="middle" x="148" y="-99.8" font-family="Times,serif" font-size="14.00">WebhookVerificationService</text>
</g>
<!-- WebhookVerificationService&#45;&gt;BlockchainModule -->
<g id="edge12" class="edge">
<title>WebhookVerificationService&#45;&gt;BlockchainModule</title>
<path fill="none" stroke="black" d="M148,-122.11C148,-141.34 148,-169 148,-169 148,-169 731.08,-169 731.08,-169"/>
<polygon fill="black" stroke="black" points="731.08,-172.5 741.08,-169 731.08,-165.5 731.08,-172.5"/>
</g>
</g>
</svg>
