<?xml version="1.0" encoding="UTF-8" standalone="no"?>
<!DOCTYPE svg PUBLIC "-//W3C//DTD SVG 1.1//EN"
 "http://www.w3.org/Graphics/SVG/1.1/DTD/svg11.dtd">
<!-- Generated by graphviz version 2.47.0 (20210316.0004)
 -->
<!-- Title: dependencies Pages: 1 -->
<svg width="1494pt" height="284pt"
 viewBox="0.00 0.00 1494.00 284.00" xmlns="http://www.w3.org/2000/svg" xmlns:xlink="http://www.w3.org/1999/xlink">
<g id="graph0" class="graph" transform="scale(1 1) rotate(0) translate(4 280)">
<title>dependencies</title>
<polygon fill="white" stroke="transparent" points="-4,4 -4,-280 1490,-280 1490,4 -4,4"/>
<text text-anchor="start" x="722.01" y="-42.4" font-family="Times-12" font-weight="bold" font-size="14.00">Legend</text>
<polygon fill="#ffffb3" stroke="transparent" points="509,-10 509,-30 529,-30 529,-10 509,-10"/>
<text text-anchor="start" x="532.63" y="-15.4" font-family="Times-12" font-size="14.00"> &#160;Declarations</text>
<polygon fill="#8dd3c7" stroke="transparent" points="622,-10 622,-30 642,-30 642,-10 622,-10"/>
<text text-anchor="start" x="645.73" y="-15.4" font-family="Times-12" font-size="14.00"> &#160;Module</text>
<polygon fill="#80b1d3" stroke="transparent" points="708,-10 708,-30 728,-30 728,-10 708,-10"/>
<text text-anchor="start" x="731.78" y="-15.4" font-family="Times-12" font-size="14.00"> &#160;Bootstrap</text>
<polygon fill="#fdb462" stroke="transparent" points="805,-10 805,-30 825,-30 825,-10 805,-10"/>
<text text-anchor="start" x="828.67" y="-15.4" font-family="Times-12" font-size="14.00"> &#160;Providers</text>
<polygon fill="#fb8072" stroke="transparent" points="901,-10 901,-30 921,-30 921,-10 901,-10"/>
<text text-anchor="start" x="924.73" y="-15.4" font-family="Times-12" font-size="14.00"> &#160;Exports</text>
<g id="clust1" class="cluster">
<title>cluster_BlockchainModule</title>
<polygon fill="none" stroke="black" stroke-dasharray="1,5" points="8,-70 8,-268 1478,-268 1478,-70 8,-70"/>
</g>
<g id="clust4" class="cluster">
<title>cluster_BlockchainModule_exports</title>
<polygon fill="none" stroke="black" points="313,-208 313,-260 1172,-260 1172,-208 313,-208"/>
</g>
<g id="clust6" class="cluster">
<title>cluster_BlockchainModule_providers</title>
<polygon fill="none" stroke="black" points="172,-78 172,-130 1470,-130 1470,-78 172,-78"/>
</g>
<g id="clust3" class="cluster">
<title>cluster_BlockchainModule_imports</title>
<polygon fill="none" stroke="black" points="16,-78 16,-130 164,-130 164,-78 16,-78"/>
</g>
<!-- TransactionsModule -->
<g id="node1" class="node">
<title>TransactionsModule</title>
<polygon fill="#8dd3c7" stroke="black" points="155.58,-122 152.58,-126 131.58,-126 128.58,-122 24.42,-122 24.42,-86 155.58,-86 155.58,-122"/>
<text text-anchor="middle" x="90" y="-99.8" font-family="Times,serif" font-size="14.00">TransactionsModule</text>
</g>
<!-- BlockchainModule -->
<g id="node2" class="node">
<title>BlockchainModule</title>
<polygon fill="#8dd3c7" stroke="black" points="822.81,-187 819.81,-191 798.81,-191 795.81,-187 699.19,-187 699.19,-151 822.81,-151 822.81,-187"/>
<text text-anchor="middle" x="761" y="-164.8" font-family="Times,serif" font-size="14.00">BlockchainModule</text>
</g>
<!-- TransactionsModule&#45;&gt;BlockchainModule -->
<g id="edge1" class="edge">
<title>TransactionsModule&#45;&gt;BlockchainModule</title>
<path fill="none" stroke="black" d="M90,-122.11C90,-141.34 90,-169 90,-169 90,-169 689.08,-169 689.08,-169"/>
<polygon fill="black" stroke="black" points="689.08,-172.5 699.08,-169 689.08,-165.5 689.08,-172.5"/>
</g>
<!-- BlockchainScannerService  -->
<g id="node3" class="node">
<title>BlockchainScannerService </title>
<polygon fill="#fb8072" stroke="black" points="1164.33,-252 993.67,-252 993.67,-216 1164.33,-216 1164.33,-252"/>
<text text-anchor="middle" x="1079" y="-229.8" font-family="Times,serif" font-size="14.00">BlockchainScannerService </text>
</g>
<!-- BlockchainModule&#45;&gt;BlockchainScannerService  -->
<g id="edge2" class="edge">
<title>BlockchainModule&#45;&gt;BlockchainScannerService </title>
<path fill="none" stroke="black" stroke-dasharray="5,2" d="M822.98,-175C899.15,-175 1018.41,-175 1018.41,-175 1018.41,-175 1018.41,-205.98 1018.41,-205.98"/>
<polygon fill="black" stroke="black" points="1014.91,-205.98 1018.41,-215.98 1021.91,-205.98 1014.91,-205.98"/>
</g>
<!-- BlockchainService  -->
<g id="node4" class="node">
<title>BlockchainService </title>
<polygon fill="#fb8072" stroke="black" points="975.74,-252 850.26,-252 850.26,-216 975.74,-216 975.74,-252"/>
<text text-anchor="middle" x="913" y="-229.8" font-family="Times,serif" font-size="14.00">BlockchainService </text>
</g>
<!-- BlockchainModule&#45;&gt;BlockchainService  -->
<g id="edge3" class="edge">
<title>BlockchainModule&#45;&gt;BlockchainService </title>
<path fill="none" stroke="black" stroke-dasharray="5,2" d="M822.93,-181C845.64,-181 865.9,-181 865.9,-181 865.9,-181 865.9,-205.76 865.9,-205.76"/>
<polygon fill="black" stroke="black" points="862.4,-205.76 865.9,-215.76 869.4,-205.76 862.4,-205.76"/>
</g>
<!-- VaultInsertingService  -->
<g id="node5" class="node">
<title>VaultInsertingService </title>
<polygon fill="#fb8072" stroke="black" points="832.34,-252 689.66,-252 689.66,-216 832.34,-216 832.34,-252"/>
<text text-anchor="middle" x="761" y="-229.8" font-family="Times,serif" font-size="14.00">VaultInsertingService </text>
</g>
<!-- BlockchainModule&#45;&gt;VaultInsertingService  -->
<g id="edge4" class="edge">
<title>BlockchainModule&#45;&gt;VaultInsertingService </title>
<path fill="none" stroke="black" stroke-dasharray="5,2" d="M761,-187.11C761,-187.11 761,-205.99 761,-205.99"/>
<polygon fill="black" stroke="black" points="757.5,-205.99 761,-215.99 764.5,-205.99 757.5,-205.99"/>
</g>
<!-- VaultManagingService  -->
<g id="node6" class="node">
<title>VaultManagingService </title>
<polygon fill="#fb8072" stroke="black" points="671.84,-252 522.16,-252 522.16,-216 671.84,-216 671.84,-252"/>
<text text-anchor="middle" x="597" y="-229.8" font-family="Times,serif" font-size="14.00">VaultManagingService </text>
</g>
<!-- BlockchainModule&#45;&gt;VaultManagingService  -->
<g id="edge5" class="edge">
<title>BlockchainModule&#45;&gt;VaultManagingService </title>
<path fill="none" stroke="black" stroke-dasharray="5,2" d="M699.26,-181C676.61,-181 656.42,-181 656.42,-181 656.42,-181 656.42,-205.76 656.42,-205.76"/>
<polygon fill="black" stroke="black" points="652.92,-205.76 656.42,-215.76 659.92,-205.76 652.92,-205.76"/>
</g>
<!-- WebhookVerificationService  -->
<g id="node7" class="node">
<title>WebhookVerificationService </title>
<polygon fill="#fb8072" stroke="black" points="504.54,-252 321.46,-252 321.46,-216 504.54,-216 504.54,-252"/>
<text text-anchor="middle" x="413" y="-229.8" font-family="Times,serif" font-size="14.00">WebhookVerificationService </text>
</g>
<!-- BlockchainModule&#45;&gt;WebhookVerificationService  -->
<g id="edge6" class="edge">
<title>BlockchainModule&#45;&gt;WebhookVerificationService </title>
<path fill="none" stroke="black" stroke-dasharray="5,2" d="M699.07,-175C615.13,-175 475.58,-175 475.58,-175 475.58,-175 475.58,-205.98 475.58,-205.98"/>
<polygon fill="black" stroke="black" points="472.08,-205.98 475.58,-215.98 479.08,-205.98 472.08,-205.98"/>
</g>
<!-- AnvilApiService -->
<g id="node8" class="node">
<title>AnvilApiService</title>
<ellipse fill="#fdb462" stroke="black" cx="1386" cy="-104" rx="76.44" ry="18"/>
<text text-anchor="middle" x="1386" y="-99.8" font-family="Times,serif" font-size="14.00">AnvilApiService</text>
</g>
<!-- AnvilApiService&#45;&gt;BlockchainModule -->
<g id="edge7" class="edge">
<title>AnvilApiService&#45;&gt;BlockchainModule</title>
<path fill="none" stroke="black" d="M1386,-122.11C1386,-141.34 1386,-169 1386,-169 1386,-169 832.92,-169 832.92,-169"/>
<polygon fill="black" stroke="black" points="832.92,-165.5 822.92,-169 832.92,-172.5 832.92,-165.5"/>
</g>
<!-- BlockchainScannerService -->
<g id="node9" class="node">
<title>BlockchainScannerService</title>
<ellipse fill="#fdb462" stroke="black" cx="1176" cy="-104" rx="115.15" ry="18"/>
<text text-anchor="middle" x="1176" y="-99.8" font-family="Times,serif" font-size="14.00">BlockchainScannerService</text>
</g>
<!-- BlockchainScannerService&#45;&gt;BlockchainModule -->
<g id="edge8" class="edge">
<title>BlockchainScannerService&#45;&gt;BlockchainModule</title>
<path fill="none" stroke="black" d="M1112.54,-119.19C1112.54,-136.68 1112.54,-163 1112.54,-163 1112.54,-163 833.04,-163 833.04,-163"/>
<polygon fill="black" stroke="black" points="833.04,-159.5 823.04,-163 833.04,-166.5 833.04,-159.5"/>
</g>
<!-- BlockchainService -->
<g id="node10" class="node">
<title>BlockchainService</title>
<ellipse fill="#fdb462" stroke="black" cx="959" cy="-104" rx="83.95" ry="18"/>
<text text-anchor="middle" x="959" y="-99.8" font-family="Times,serif" font-size="14.00">BlockchainService</text>
</g>
<!-- BlockchainService&#45;&gt;BlockchainModule -->
<g id="edge9" class="edge">
<title>BlockchainService&#45;&gt;BlockchainModule</title>
<path fill="none" stroke="black" d="M925.32,-120.77C925.32,-136.3 925.32,-157 925.32,-157 925.32,-157 833.12,-157 833.12,-157"/>
<polygon fill="black" stroke="black" points="833.12,-153.5 823.12,-157 833.12,-160.5 833.12,-153.5"/>
</g>
<!-- VaultInsertingService -->
<g id="node11" class="node">
<title>VaultInsertingService</title>
<ellipse fill="#fdb462" stroke="black" cx="761" cy="-104" rx="95.54" ry="18"/>
<text text-anchor="middle" x="761" y="-99.8" font-family="Times,serif" font-size="14.00">VaultInsertingService</text>
</g>
<!-- VaultInsertingService&#45;&gt;BlockchainModule -->
<g id="edge10" class="edge">
<title>VaultInsertingService&#45;&gt;BlockchainModule</title>
<path fill="none" stroke="black" d="M761,-122.11C761,-122.11 761,-140.99 761,-140.99"/>
<polygon fill="black" stroke="black" points="757.5,-140.99 761,-150.99 764.5,-140.99 757.5,-140.99"/>
</g>
<!-- VaultManagingService -->
<g id="node12" class="node">
<title>VaultManagingService</title>
<ellipse fill="#fdb462" stroke="black" cx="547" cy="-104" rx="100.7" ry="18"/>
<text text-anchor="middle" x="547" y="-99.8" font-family="Times,serif" font-size="14.00">VaultManagingService</text>
</g>
<!-- VaultManagingService&#45;&gt;BlockchainModule -->
<g id="edge11" class="edge">
<title>VaultManagingService&#45;&gt;BlockchainModule</title>
<path fill="none" stroke="black" d="M584.96,-120.77C584.96,-136.3 584.96,-157 584.96,-157 584.96,-157 688.94,-157 688.94,-157"/>
<polygon fill="black" stroke="black" points="688.94,-160.5 698.94,-157 688.94,-153.5 688.94,-160.5"/>
</g>
<!-- WebhookVerificationService -->
<g id="node13" class="node">
<title>WebhookVerificationService</title>
<ellipse fill="#fdb462" stroke="black" cx="304" cy="-104" rx="124.38" ry="18"/>
<text text-anchor="middle" x="304" y="-99.8" font-family="Times,serif" font-size="14.00">WebhookVerificationService</text>
</g>
<!-- WebhookVerificationService&#45;&gt;BlockchainModule -->
<g id="edge12" class="edge">
<title>WebhookVerificationService&#45;&gt;BlockchainModule</title>
<path fill="none" stroke="black" d="M374.71,-118.89C374.71,-136.37 374.71,-163 374.71,-163 374.71,-163 688.94,-163 688.94,-163"/>
<polygon fill="black" stroke="black" points="688.94,-166.5 698.94,-163 688.94,-159.5 688.94,-166.5"/>
</g>
</g>
</svg>
