<?xml version="1.0" encoding="UTF-8" standalone="no"?>
<!DOCTYPE svg PUBLIC "-//W3C//DTD SVG 1.1//EN"
 "http://www.w3.org/Graphics/SVG/1.1/DTD/svg11.dtd">
<!-- Generated by graphviz version 2.47.0 (20210316.0004)
 -->
<!-- Title: dependencies Pages: 1 -->
<svg width="532pt" height="284pt"
 viewBox="0.00 0.00 532.00 284.00" xmlns="http://www.w3.org/2000/svg" xmlns:xlink="http://www.w3.org/1999/xlink">
<g id="graph0" class="graph" transform="scale(1 1) rotate(0) translate(4 280)">
<title>dependencies</title>
<polygon fill="white" stroke="transparent" points="-4,4 -4,-280 528,-280 528,4 -4,4"/>
<text text-anchor="start" x="241.01" y="-42.4" font-family="Times-12" font-weight="bold" font-size="14.00">Legend</text>
<polygon fill="#ffffb3" stroke="transparent" points="28,-10 28,-30 48,-30 48,-10 28,-10"/>
<text text-anchor="start" x="51.63" y="-15.4" font-family="Times-12" font-size="14.00"> &#160;Declarations</text>
<polygon fill="#8dd3c7" stroke="transparent" points="141,-10 141,-30 161,-30 161,-10 141,-10"/>
<text text-anchor="start" x="164.73" y="-15.4" font-family="Times-12" font-size="14.00"> &#160;Module</text>
<polygon fill="#80b1d3" stroke="transparent" points="227,-10 227,-30 247,-30 247,-10 227,-10"/>
<text text-anchor="start" x="250.78" y="-15.4" font-family="Times-12" font-size="14.00"> &#160;Bootstrap</text>
<polygon fill="#fdb462" stroke="transparent" points="324,-10 324,-30 344,-30 344,-10 324,-10"/>
<text text-anchor="start" x="347.67" y="-15.4" font-family="Times-12" font-size="14.00"> &#160;Providers</text>
<polygon fill="#fb8072" stroke="transparent" points="420,-10 420,-30 440,-30 440,-10 420,-10"/>
<text text-anchor="start" x="443.73" y="-15.4" font-family="Times-12" font-size="14.00"> &#160;Exports</text>
<g id="clust1" class="cluster">
<title>cluster_ClaimsModule</title>
<polygon fill="none" stroke="black" stroke-dasharray="1,5" points="8,-70 8,-268 516,-268 516,-70 8,-70"/>
</g>
<g id="clust6" class="cluster">
<title>cluster_ClaimsModule_providers</title>
<polygon fill="none" stroke="black" points="172,-78 172,-130 508,-130 508,-78 172,-78"/>
</g>
<g id="clust3" class="cluster">
<title>cluster_ClaimsModule_imports</title>
<polygon fill="none" stroke="black" points="16,-78 16,-130 164,-130 164,-78 16,-78"/>
</g>
<g id="clust4" class="cluster">
<title>cluster_ClaimsModule_exports</title>
<polygon fill="none" stroke="black" points="188,-208 188,-260 306,-260 306,-208 188,-208"/>
</g>
<!-- TransactionsModule -->
<g id="node1" class="node">
<title>TransactionsModule</title>
<polygon fill="#8dd3c7" stroke="black" points="155.58,-122 152.58,-126 131.58,-126 128.58,-122 24.42,-122 24.42,-86 155.58,-86 155.58,-122"/>
<text text-anchor="middle" x="90" y="-99.8" font-family="Times,serif" font-size="14.00">TransactionsModule</text>
</g>
<!-- ClaimsModule -->
<g id="node2" class="node">
<title>ClaimsModule</title>
<polygon fill="#8dd3c7" stroke="black" points="296.72,-187 293.72,-191 272.72,-191 269.72,-187 197.28,-187 197.28,-151 296.72,-151 296.72,-187"/>
<text text-anchor="middle" x="247" y="-164.8" font-family="Times,serif" font-size="14.00">ClaimsModule</text>
</g>
<!-- TransactionsModule&#45;&gt;ClaimsModule -->
<g id="edge1" class="edge">
<title>TransactionsModule&#45;&gt;ClaimsModule</title>
<path fill="none" stroke="black" d="M90,-122.11C90,-141.34 90,-169 90,-169 90,-169 187.32,-169 187.32,-169"/>
<polygon fill="black" stroke="black" points="187.32,-172.5 197.32,-169 187.32,-165.5 187.32,-172.5"/>
</g>
<!-- ClaimsService  -->
<g id="node3" class="node">
<title>ClaimsService </title>
<polygon fill="#fb8072" stroke="black" points="297.65,-252 196.35,-252 196.35,-216 297.65,-216 297.65,-252"/>
<text text-anchor="middle" x="247" y="-229.8" font-family="Times,serif" font-size="14.00">ClaimsService </text>
</g>
<!-- ClaimsModule&#45;&gt;ClaimsService  -->
<g id="edge2" class="edge">
<title>ClaimsModule&#45;&gt;ClaimsService </title>
<path fill="none" stroke="black" stroke-dasharray="5,2" d="M247,-187.11C247,-187.11 247,-205.99 247,-205.99"/>
<polygon fill="black" stroke="black" points="243.5,-205.99 247,-215.99 250.5,-205.99 243.5,-205.99"/>
</g>
<!-- BlockchainService -->
<g id="node4" class="node">
<title>BlockchainService</title>
<ellipse fill="#fdb462" stroke="black" cx="416" cy="-104" rx="83.95" ry="18"/>
<text text-anchor="middle" x="416" y="-99.8" font-family="Times,serif" font-size="14.00">BlockchainService</text>
</g>
<!-- BlockchainService&#45;&gt;ClaimsModule -->
<g id="edge3" class="edge">
<title>BlockchainService&#45;&gt;ClaimsModule</title>
<path fill="none" stroke="black" d="M416,-122.11C416,-141.34 416,-169 416,-169 416,-169 306.79,-169 306.79,-169"/>
<polygon fill="black" stroke="black" points="306.79,-165.5 296.79,-169 306.79,-172.5 306.79,-165.5"/>
</g>
<!-- ClaimsService -->
<g id="node5" class="node">
<title>ClaimsService</title>
<ellipse fill="#fdb462" stroke="black" cx="247" cy="-104" rx="67.21" ry="18"/>
<text text-anchor="middle" x="247" y="-99.8" font-family="Times,serif" font-size="14.00">ClaimsService</text>
</g>
<!-- ClaimsService&#45;&gt;ClaimsModule -->
<g id="edge4" class="edge">
<title>ClaimsService&#45;&gt;ClaimsModule</title>
<path fill="none" stroke="black" d="M247,-122.11C247,-122.11 247,-140.99 247,-140.99"/>
<polygon fill="black" stroke="black" points="243.5,-140.99 247,-150.99 250.5,-140.99 243.5,-140.99"/>
</g>
</g>
</svg>
