<?xml version="1.0" encoding="UTF-8" standalone="no"?>
<!DOCTYPE svg PUBLIC "-//W3C//DTD SVG 1.1//EN"
 "http://www.w3.org/Graphics/SVG/1.1/DTD/svg11.dtd">
<!-- Generated by graphviz version 2.47.0 (20210316.0004)
 -->
<!-- Title: dependencies Pages: 1 -->
<svg width="511pt" height="284pt"
 viewBox="0.00 0.00 511.00 284.00" xmlns="http://www.w3.org/2000/svg" xmlns:xlink="http://www.w3.org/1999/xlink">
<g id="graph0" class="graph" transform="scale(1 1) rotate(0) translate(4 280)">
<title>dependencies</title>
<polygon fill="white" stroke="transparent" points="-4,4 -4,-280 507,-280 507,4 -4,4"/>
<text text-anchor="start" x="230.51" y="-42.4" font-family="Times-12" font-weight="bold" font-size="14.00">Legend</text>
<polygon fill="#ffffb3" stroke="transparent" points="17.5,-10 17.5,-30 37.5,-30 37.5,-10 17.5,-10"/>
<text text-anchor="start" x="41.13" y="-15.4" font-family="Times-12" font-size="14.00"> &#160;Declarations</text>
<polygon fill="#8dd3c7" stroke="transparent" points="130.5,-10 130.5,-30 150.5,-30 150.5,-10 130.5,-10"/>
<text text-anchor="start" x="154.23" y="-15.4" font-family="Times-12" font-size="14.00"> &#160;Module</text>
<polygon fill="#80b1d3" stroke="transparent" points="216.5,-10 216.5,-30 236.5,-30 236.5,-10 216.5,-10"/>
<text text-anchor="start" x="240.28" y="-15.4" font-family="Times-12" font-size="14.00"> &#160;Bootstrap</text>
<polygon fill="#fdb462" stroke="transparent" points="313.5,-10 313.5,-30 333.5,-30 333.5,-10 313.5,-10"/>
<text text-anchor="start" x="337.17" y="-15.4" font-family="Times-12" font-size="14.00"> &#160;Providers</text>
<polygon fill="#fb8072" stroke="transparent" points="409.5,-10 409.5,-30 429.5,-30 429.5,-10 409.5,-10"/>
<text text-anchor="start" x="433.23" y="-15.4" font-family="Times-12" font-size="14.00"> &#160;Exports</text>
<g id="clust1" class="cluster">
<title>cluster_LpTokensModule</title>
<polygon fill="none" stroke="black" stroke-dasharray="1,5" points="8,-70 8,-268 495,-268 495,-70 8,-70"/>
</g>
<g id="clust6" class="cluster">
<title>cluster_LpTokensModule_providers</title>
<polygon fill="none" stroke="black" points="313,-78 313,-130 487,-130 487,-78 313,-78"/>
</g>
<g id="clust4" class="cluster">
<title>cluster_LpTokensModule_exports</title>
<polygon fill="none" stroke="black" points="168,-208 168,-260 302,-260 302,-208 168,-208"/>
</g>
<g id="clust3" class="cluster">
<title>cluster_LpTokensModule_imports</title>
<polygon fill="none" stroke="black" points="16,-78 16,-130 305,-130 305,-78 16,-78"/>
</g>
<!-- BlockchainModule -->
<g id="node1" class="node">
<title>BlockchainModule</title>
<polygon fill="#8dd3c7" stroke="black" points="296.81,-122 293.81,-126 272.81,-126 269.81,-122 173.19,-122 173.19,-86 296.81,-86 296.81,-122"/>
<text text-anchor="middle" x="235" y="-99.8" font-family="Times,serif" font-size="14.00">BlockchainModule</text>
</g>
<!-- LpTokensModule -->
<g id="node3" class="node">
<title>LpTokensModule</title>
<polygon fill="#8dd3c7" stroke="black" points="293.31,-187 290.31,-191 269.31,-191 266.31,-187 176.69,-187 176.69,-151 293.31,-151 293.31,-187"/>
<text text-anchor="middle" x="235" y="-164.8" font-family="Times,serif" font-size="14.00">LpTokensModule</text>
</g>
<!-- BlockchainModule&#45;&gt;LpTokensModule -->
<g id="edge1" class="edge">
<title>BlockchainModule&#45;&gt;LpTokensModule</title>
<path fill="none" stroke="black" d="M235,-122.11C235,-122.11 235,-140.99 235,-140.99"/>
<polygon fill="black" stroke="black" points="231.5,-140.99 235,-150.99 238.5,-140.99 231.5,-140.99"/>
</g>
<!-- TransactionsModule -->
<g id="node2" class="node">
<title>TransactionsModule</title>
<polygon fill="#8dd3c7" stroke="black" points="155.58,-122 152.58,-126 131.58,-126 128.58,-122 24.42,-122 24.42,-86 155.58,-86 155.58,-122"/>
<text text-anchor="middle" x="90" y="-99.8" font-family="Times,serif" font-size="14.00">TransactionsModule</text>
</g>
<!-- TransactionsModule&#45;&gt;LpTokensModule -->
<g id="edge2" class="edge">
<title>TransactionsModule&#45;&gt;LpTokensModule</title>
<path fill="none" stroke="black" d="M90,-122.11C90,-141.34 90,-169 90,-169 90,-169 166.44,-169 166.44,-169"/>
<polygon fill="black" stroke="black" points="166.44,-172.5 176.44,-169 166.44,-165.5 166.44,-172.5"/>
</g>
<!-- LpTokensService  -->
<g id="node4" class="node">
<title>LpTokensService </title>
<polygon fill="#fb8072" stroke="black" points="294.24,-252 175.76,-252 175.76,-216 294.24,-216 294.24,-252"/>
<text text-anchor="middle" x="235" y="-229.8" font-family="Times,serif" font-size="14.00">LpTokensService </text>
</g>
<!-- LpTokensModule&#45;&gt;LpTokensService  -->
<g id="edge3" class="edge">
<title>LpTokensModule&#45;&gt;LpTokensService </title>
<path fill="none" stroke="black" stroke-dasharray="5,2" d="M235,-187.11C235,-187.11 235,-205.99 235,-205.99"/>
<polygon fill="black" stroke="black" points="231.5,-205.99 235,-215.99 238.5,-205.99 231.5,-205.99"/>
</g>
<!-- LpTokensService -->
<g id="node5" class="node">
<title>LpTokensService</title>
<ellipse fill="#fdb462" stroke="black" cx="400" cy="-104" rx="79.29" ry="18"/>
<text text-anchor="middle" x="400" y="-99.8" font-family="Times,serif" font-size="14.00">LpTokensService</text>
</g>
<!-- LpTokensService&#45;&gt;LpTokensModule -->
<g id="edge4" class="edge">
<title>LpTokensService&#45;&gt;LpTokensModule</title>
<path fill="none" stroke="black" d="M400,-122.11C400,-141.34 400,-169 400,-169 400,-169 303.17,-169 303.17,-169"/>
<polygon fill="black" stroke="black" points="303.17,-165.5 293.17,-169 303.17,-172.5 303.17,-165.5"/>
</g>
</g>
</svg>
