<?xml version="1.0" encoding="UTF-8" standalone="no"?>
<!DOCTYPE svg PUBLIC "-//W3C//DTD SVG 1.1//EN"
 "http://www.w3.org/Graphics/SVG/1.1/DTD/svg11.dtd">
<!-- Generated by graphviz version 2.47.0 (20210316.0004)
 -->
<!-- Title: dependencies Pages: 1 -->
<svg width="511pt" height="284pt"
 viewBox="0.00 0.00 511.00 284.00" xmlns="http://www.w3.org/2000/svg" xmlns:xlink="http://www.w3.org/1999/xlink">
<g id="graph0" class="graph" transform="scale(1 1) rotate(0) translate(4 280)">
<title>dependencies</title>
<polygon fill="white" stroke="transparent" points="-4,4 -4,-280 507,-280 507,4 -4,4"/>
<text text-anchor="start" x="230.51" y="-42.4" font-family="Times-12" font-weight="bold" font-size="14.00">Legend</text>
<polygon fill="#ffffb3" stroke="transparent" points="17.5,-10 17.5,-30 37.5,-30 37.5,-10 17.5,-10"/>
<text text-anchor="start" x="41.13" y="-15.4" font-family="Times-12" font-size="14.00"> &#160;Declarations</text>
<polygon fill="#8dd3c7" stroke="transparent" points="130.5,-10 130.5,-30 150.5,-30 150.5,-10 130.5,-10"/>
<text text-anchor="start" x="154.23" y="-15.4" font-family="Times-12" font-size="14.00"> &#160;Module</text>
<polygon fill="#80b1d3" stroke="transparent" points="216.5,-10 216.5,-30 236.5,-30 236.5,-10 216.5,-10"/>
<text text-anchor="start" x="240.28" y="-15.4" font-family="Times-12" font-size="14.00"> &#160;Bootstrap</text>
<polygon fill="#fdb462" stroke="transparent" points="313.5,-10 313.5,-30 333.5,-30 333.5,-10 313.5,-10"/>
<text text-anchor="start" x="337.17" y="-15.4" font-family="Times-12" font-size="14.00"> &#160;Providers</text>
<polygon fill="#fb8072" stroke="transparent" points="409.5,-10 409.5,-30 429.5,-30 429.5,-10 409.5,-10"/>
<text text-anchor="start" x="433.23" y="-15.4" font-family="Times-12" font-size="14.00"> &#160;Exports</text>
<g id="clust1" class="cluster">
<title>cluster_LpTokensModule</title>
<polygon fill="none" stroke="black" stroke-dasharray="1,5" points="8,-70 8,-268 495,-268 495,-70 8,-70"/>
</g>
<g id="clust4" class="cluster">
<title>cluster_LpTokensModule_exports</title>
<polygon fill="none" stroke="black" points="205,-208 205,-260 339,-260 339,-208 205,-208"/>
</g>
<g id="clust3" class="cluster">
<title>cluster_LpTokensModule_imports</title>
<polygon fill="none" stroke="black" points="198,-78 198,-130 487,-130 487,-78 198,-78"/>
</g>
<g id="clust6" class="cluster">
<title>cluster_LpTokensModule_providers</title>
<polygon fill="none" stroke="black" points="16,-78 16,-130 190,-130 190,-78 16,-78"/>
</g>
<!-- BlockchainModule -->
<g id="node1" class="node">
<title>BlockchainModule</title>
<polygon fill="#8dd3c7" stroke="black" points="478.81,-122 475.81,-126 454.81,-126 451.81,-122 355.19,-122 355.19,-86 478.81,-86 478.81,-122"/>
<text text-anchor="middle" x="417" y="-99.8" font-family="Times,serif" font-size="14.00">BlockchainModule</text>
</g>
<!-- LpTokensModule -->
<g id="node3" class="node">
<title>LpTokensModule</title>
<polygon fill="#8dd3c7" stroke="black" points="330.31,-187 327.31,-191 306.31,-191 303.31,-187 213.69,-187 213.69,-151 330.31,-151 330.31,-187"/>
<text text-anchor="middle" x="272" y="-164.8" font-family="Times,serif" font-size="14.00">LpTokensModule</text>
</g>
<!-- BlockchainModule&#45;&gt;LpTokensModule -->
<g id="edge1" class="edge">
<title>BlockchainModule&#45;&gt;LpTokensModule</title>
<path fill="none" stroke="black" d="M417,-122.11C417,-141.34 417,-169 417,-169 417,-169 340.56,-169 340.56,-169"/>
<polygon fill="black" stroke="black" points="340.56,-165.5 330.56,-169 340.56,-172.5 340.56,-165.5"/>
</g>
<!-- TransactionsModule -->
<g id="node2" class="node">
<title>TransactionsModule</title>
<polygon fill="#8dd3c7" stroke="black" points="337.58,-122 334.58,-126 313.58,-126 310.58,-122 206.42,-122 206.42,-86 337.58,-86 337.58,-122"/>
<text text-anchor="middle" x="272" y="-99.8" font-family="Times,serif" font-size="14.00">TransactionsModule</text>
</g>
<!-- TransactionsModule&#45;&gt;LpTokensModule -->
<g id="edge2" class="edge">
<title>TransactionsModule&#45;&gt;LpTokensModule</title>
<path fill="none" stroke="black" d="M272,-122.11C272,-122.11 272,-140.99 272,-140.99"/>
<polygon fill="black" stroke="black" points="268.5,-140.99 272,-150.99 275.5,-140.99 268.5,-140.99"/>
</g>
<!-- LpTokensService  -->
<g id="node4" class="node">
<title>LpTokensService </title>
<polygon fill="#fb8072" stroke="black" points="331.24,-252 212.76,-252 212.76,-216 331.24,-216 331.24,-252"/>
<text text-anchor="middle" x="272" y="-229.8" font-family="Times,serif" font-size="14.00">LpTokensService </text>
</g>
<!-- LpTokensModule&#45;&gt;LpTokensService  -->
<g id="edge3" class="edge">
<title>LpTokensModule&#45;&gt;LpTokensService </title>
<path fill="none" stroke="black" stroke-dasharray="5,2" d="M272,-187.11C272,-187.11 272,-205.99 272,-205.99"/>
<polygon fill="black" stroke="black" points="268.5,-205.99 272,-215.99 275.5,-205.99 268.5,-205.99"/>
</g>
<!-- LpTokensService -->
<g id="node5" class="node">
<title>LpTokensService</title>
<ellipse fill="#fdb462" stroke="black" cx="103" cy="-104" rx="79.29" ry="18"/>
<text text-anchor="middle" x="103" y="-99.8" font-family="Times,serif" font-size="14.00">LpTokensService</text>
</g>
<!-- LpTokensService&#45;&gt;LpTokensModule -->
<g id="edge4" class="edge">
<title>LpTokensService&#45;&gt;LpTokensModule</title>
<path fill="none" stroke="black" d="M103,-122.11C103,-141.34 103,-169 103,-169 103,-169 203.84,-169 203.84,-169"/>
<polygon fill="black" stroke="black" points="203.84,-172.5 213.84,-169 203.84,-165.5 203.84,-172.5"/>
</g>
</g>
</svg>
