<?xml version="1.0" encoding="UTF-8" standalone="no"?>
<!DOCTYPE svg PUBLIC "-//W3C//DTD SVG 1.1//EN"
 "http://www.w3.org/Graphics/SVG/1.1/DTD/svg11.dtd">
<!-- Generated by graphviz version 2.47.0 (20210316.0004)
 -->
<!-- Title: dependencies Pages: 1 -->
<svg width="1815pt" height="211pt"
 viewBox="0.00 0.00 1815.00 211.00" xmlns="http://www.w3.org/2000/svg" xmlns:xlink="http://www.w3.org/1999/xlink">
<g id="graph0" class="graph" transform="scale(1 1) rotate(0) translate(4 207)">
<title>dependencies</title>
<polygon fill="white" stroke="transparent" points="-4,4 -4,-207 1811,-207 1811,4 -4,4"/>
<text text-anchor="start" x="882.51" y="-42.4" font-family="Times-12" font-weight="bold" font-size="14.00">Legend</text>
<polygon fill="#ffffb3" stroke="transparent" points="669.5,-10 669.5,-30 689.5,-30 689.5,-10 669.5,-10"/>
<text text-anchor="start" x="693.13" y="-15.4" font-family="Times-12" font-size="14.00"> &#160;Declarations</text>
<polygon fill="#8dd3c7" stroke="transparent" points="782.5,-10 782.5,-30 802.5,-30 802.5,-10 782.5,-10"/>
<text text-anchor="start" x="806.23" y="-15.4" font-family="Times-12" font-size="14.00"> &#160;Module</text>
<polygon fill="#80b1d3" stroke="transparent" points="868.5,-10 868.5,-30 888.5,-30 888.5,-10 868.5,-10"/>
<text text-anchor="start" x="892.28" y="-15.4" font-family="Times-12" font-size="14.00"> &#160;Bootstrap</text>
<polygon fill="#fdb462" stroke="transparent" points="965.5,-10 965.5,-30 985.5,-30 985.5,-10 965.5,-10"/>
<text text-anchor="start" x="989.17" y="-15.4" font-family="Times-12" font-size="14.00"> &#160;Providers</text>
<polygon fill="#fb8072" stroke="transparent" points="1061.5,-10 1061.5,-30 1081.5,-30 1081.5,-10 1061.5,-10"/>
<text text-anchor="start" x="1085.23" y="-15.4" font-family="Times-12" font-size="14.00"> &#160;Exports</text>
<g id="clust1" class="cluster">
<title>cluster_AppModule</title>
<polygon fill="none" stroke="black" stroke-dasharray="1,5" points="8,-70 8,-195 1799,-195 1799,-70 8,-70"/>
</g>
<g id="clust6" class="cluster">
<title>cluster_AppModule_providers</title>
<polygon fill="none" stroke="black" points="1661,-78 1661,-130 1791,-130 1791,-78 1661,-78"/>
</g>
<g id="clust3" class="cluster">
<title>cluster_AppModule_imports</title>
<polygon fill="none" stroke="black" points="16,-78 16,-130 1653,-130 1653,-78 16,-78"/>
</g>
<!-- AcquireModule -->
<g id="node1" class="node">
<title>AcquireModule</title>
<polygon fill="#8dd3c7" stroke="black" points="1645.14,-122 1642.14,-126 1621.14,-126 1618.14,-122 1540.86,-122 1540.86,-86 1645.14,-86 1645.14,-122"/>
<text text-anchor="middle" x="1593" y="-99.8" font-family="Times,serif" font-size="14.00">AcquireModule</text>
</g>
<!-- AppModule -->
<g id="node14" class="node">
<title>AppModule</title>
<polygon fill="#8dd3c7" stroke="black" points="984.66,-187 981.66,-191 960.66,-191 957.66,-187 901.34,-187 901.34,-151 984.66,-151 984.66,-187"/>
<text text-anchor="middle" x="943" y="-164.8" font-family="Times,serif" font-size="14.00">AppModule</text>
</g>
<!-- AcquireModule&#45;&gt;AppModule -->
<g id="edge1" class="edge">
<title>AcquireModule&#45;&gt;AppModule</title>
<path fill="none" stroke="black" d="M1593,-122.04C1593,-143.66 1593,-177 1593,-177 1593,-177 995.15,-177 995.15,-177"/>
<polygon fill="black" stroke="black" points="995.15,-173.5 985.15,-177 995.15,-180.5 995.15,-173.5"/>
</g>
<!-- AssetsModule -->
<g id="node2" class="node">
<title>AssetsModule</title>
<polygon fill="#8dd3c7" stroke="black" points="1523.1,-122 1520.1,-126 1499.1,-126 1496.1,-122 1426.9,-122 1426.9,-86 1523.1,-86 1523.1,-122"/>
<text text-anchor="middle" x="1475" y="-99.8" font-family="Times,serif" font-size="14.00">AssetsModule</text>
</g>
<!-- AssetsModule&#45;&gt;AppModule -->
<g id="edge2" class="edge">
<title>AssetsModule&#45;&gt;AppModule</title>
<path fill="none" stroke="black" d="M1475,-122.22C1475,-142.37 1475,-172 1475,-172 1475,-172 994.75,-172 994.75,-172"/>
<polygon fill="black" stroke="black" points="994.75,-168.5 984.75,-172 994.75,-175.5 994.75,-168.5"/>
</g>
<!-- AuthModule -->
<g id="node3" class="node">
<title>AuthModule</title>
<polygon fill="#8dd3c7" stroke="black" points="1408.55,-122 1405.55,-126 1384.55,-126 1381.55,-122 1321.45,-122 1321.45,-86 1408.55,-86 1408.55,-122"/>
<text text-anchor="middle" x="1365" y="-99.8" font-family="Times,serif" font-size="14.00">AuthModule</text>
</g>
<!-- AuthModule&#45;&gt;AppModule -->
<g id="edge3" class="edge">
<title>AuthModule&#45;&gt;AppModule</title>
<path fill="none" stroke="black" d="M1365,-122.22C1365,-140.83 1365,-167 1365,-167 1365,-167 995.01,-167 995.01,-167"/>
<polygon fill="black" stroke="black" points="995.01,-163.5 985.01,-167 995.01,-170.5 995.01,-163.5"/>
</g>
<!-- AwsModule -->
<g id="node4" class="node">
<title>AwsModule</title>
<polygon fill="#8dd3c7" stroke="black" points="1303.71,-122 1300.71,-126 1279.71,-126 1276.71,-122 1218.29,-122 1218.29,-86 1303.71,-86 1303.71,-122"/>
<text text-anchor="middle" x="1261" y="-99.8" font-family="Times,serif" font-size="14.00">AwsModule</text>
</g>
<!-- AwsModule&#45;&gt;AppModule -->
<g id="edge4" class="edge">
<title>AwsModule&#45;&gt;AppModule</title>
<path fill="none" stroke="black" d="M1261,-122.03C1261,-139.06 1261,-162 1261,-162 1261,-162 994.9,-162 994.9,-162"/>
<polygon fill="black" stroke="black" points="994.9,-158.5 984.9,-162 994.9,-165.5 994.9,-158.5"/>
</g>
<!-- BlockchainModule -->
<g id="node5" class="node">
<title>BlockchainModule</title>
<polygon fill="#8dd3c7" stroke="black" points="1200.81,-122 1197.81,-126 1176.81,-126 1173.81,-122 1077.19,-122 1077.19,-86 1200.81,-86 1200.81,-122"/>
<text text-anchor="middle" x="1139" y="-99.8" font-family="Times,serif" font-size="14.00">BlockchainModule</text>
</g>
<!-- BlockchainModule&#45;&gt;AppModule -->
<g id="edge5" class="edge">
<title>BlockchainModule&#45;&gt;AppModule</title>
<path fill="none" stroke="black" d="M1139,-122.24C1139,-137.57 1139,-157 1139,-157 1139,-157 995.05,-157 995.05,-157"/>
<polygon fill="black" stroke="black" points="995.05,-153.5 985.05,-157 995.05,-160.5 995.05,-153.5"/>
</g>
<!-- ClaimsModule -->
<g id="node6" class="node">
<title>ClaimsModule</title>
<polygon fill="#8dd3c7" stroke="black" points="1059.72,-122 1056.72,-126 1035.72,-126 1032.72,-122 960.28,-122 960.28,-86 1059.72,-86 1059.72,-122"/>
<text text-anchor="middle" x="1010" y="-99.8" font-family="Times,serif" font-size="14.00">ClaimsModule</text>
</g>
<!-- ClaimsModule&#45;&gt;AppModule -->
<g id="edge6" class="edge">
<title>ClaimsModule&#45;&gt;AppModule</title>
<path fill="none" stroke="black" d="M972.61,-122.11C972.61,-122.11 972.61,-140.99 972.61,-140.99"/>
<polygon fill="black" stroke="black" points="969.11,-140.99 972.61,-150.99 976.11,-140.99 969.11,-140.99"/>
</g>
<!-- ContributionModule -->
<g id="node7" class="node">
<title>ContributionModule</title>
<polygon fill="#8dd3c7" stroke="black" points="942.61,-122 939.61,-126 918.61,-126 915.61,-122 811.39,-122 811.39,-86 942.61,-86 942.61,-122"/>
<text text-anchor="middle" x="877" y="-99.8" font-family="Times,serif" font-size="14.00">ContributionModule</text>
</g>
<!-- ContributionModule&#45;&gt;AppModule -->
<g id="edge7" class="edge">
<title>ContributionModule&#45;&gt;AppModule</title>
<path fill="none" stroke="black" d="M921.86,-122.11C921.86,-122.11 921.86,-140.99 921.86,-140.99"/>
<polygon fill="black" stroke="black" points="918.36,-140.99 921.86,-150.99 925.36,-140.99 918.36,-140.99"/>
</g>
<!-- DistributionModule -->
<g id="node8" class="node">
<title>DistributionModule</title>
<polygon fill="#8dd3c7" stroke="black" points="793.71,-122 790.71,-126 769.71,-126 766.71,-122 666.29,-122 666.29,-86 793.71,-86 793.71,-122"/>
<text text-anchor="middle" x="730" y="-99.8" font-family="Times,serif" font-size="14.00">DistributionModule</text>
</g>
<!-- DistributionModule&#45;&gt;AppModule -->
<g id="edge8" class="edge">
<title>DistributionModule&#45;&gt;AppModule</title>
<path fill="none" stroke="black" d="M730,-122.24C730,-137.57 730,-157 730,-157 730,-157 891.17,-157 891.17,-157"/>
<polygon fill="black" stroke="black" points="891.17,-160.5 901.17,-157 891.17,-153.5 891.17,-160.5"/>
</g>
<!-- JwtGlobalModule -->
<g id="node9" class="node">
<title>JwtGlobalModule</title>
<polygon fill="#8dd3c7" stroke="black" points="648.59,-122 645.59,-126 624.59,-126 621.59,-122 531.41,-122 531.41,-86 648.59,-86 648.59,-122"/>
<text text-anchor="middle" x="590" y="-99.8" font-family="Times,serif" font-size="14.00">JwtGlobalModule</text>
</g>
<!-- JwtGlobalModule&#45;&gt;AppModule -->
<g id="edge9" class="edge">
<title>JwtGlobalModule&#45;&gt;AppModule</title>
<path fill="none" stroke="black" d="M590,-122.03C590,-139.06 590,-162 590,-162 590,-162 891.12,-162 891.12,-162"/>
<polygon fill="black" stroke="black" points="891.12,-165.5 901.12,-162 891.12,-158.5 891.12,-165.5"/>
</g>
<!-- LpTokensModule -->
<g id="node10" class="node">
<title>LpTokensModule</title>
<polygon fill="#8dd3c7" stroke="black" points="513.31,-122 510.31,-126 489.31,-126 486.31,-122 396.69,-122 396.69,-86 513.31,-86 513.31,-122"/>
<text text-anchor="middle" x="455" y="-99.8" font-family="Times,serif" font-size="14.00">LpTokensModule</text>
</g>
<!-- LpTokensModule&#45;&gt;AppModule -->
<g id="edge10" class="edge">
<title>LpTokensModule&#45;&gt;AppModule</title>
<path fill="none" stroke="black" d="M455,-122.22C455,-140.83 455,-167 455,-167 455,-167 890.97,-167 890.97,-167"/>
<polygon fill="black" stroke="black" points="890.97,-170.5 900.97,-167 890.97,-163.5 890.97,-170.5"/>
</g>
<!-- TransactionsModule -->
<g id="node11" class="node">
<title>TransactionsModule</title>
<polygon fill="#8dd3c7" stroke="black" points="378.58,-122 375.58,-126 354.58,-126 351.58,-122 247.42,-122 247.42,-86 378.58,-86 378.58,-122"/>
<text text-anchor="middle" x="313" y="-99.8" font-family="Times,serif" font-size="14.00">TransactionsModule</text>
</g>
<!-- TransactionsModule&#45;&gt;AppModule -->
<g id="edge11" class="edge">
<title>TransactionsModule&#45;&gt;AppModule</title>
<path fill="none" stroke="black" d="M313,-122.22C313,-142.37 313,-172 313,-172 313,-172 891.18,-172 891.18,-172"/>
<polygon fill="black" stroke="black" points="891.18,-175.5 901.18,-172 891.18,-168.5 891.18,-175.5"/>
</g>
<!-- UsersModule -->
<g id="node12" class="node">
<title>UsersModule</title>
<polygon fill="#8dd3c7" stroke="black" points="229.92,-122 226.92,-126 205.92,-126 202.92,-122 138.08,-122 138.08,-86 229.92,-86 229.92,-122"/>
<text text-anchor="middle" x="184" y="-99.8" font-family="Times,serif" font-size="14.00">UsersModule</text>
</g>
<!-- UsersModule&#45;&gt;AppModule -->
<g id="edge12" class="edge">
<title>UsersModule&#45;&gt;AppModule</title>
<path fill="none" stroke="black" d="M184,-122.04C184,-143.66 184,-177 184,-177 184,-177 891.11,-177 891.11,-177"/>
<polygon fill="black" stroke="black" points="891.11,-180.5 901.11,-177 891.11,-173.5 891.11,-180.5"/>
</g>
<!-- VaultsModule -->
<g id="node13" class="node">
<title>VaultsModule</title>
<polygon fill="#8dd3c7" stroke="black" points="120.1,-122 117.1,-126 96.1,-126 93.1,-122 23.9,-122 23.9,-86 120.1,-86 120.1,-122"/>
<text text-anchor="middle" x="72" y="-99.8" font-family="Times,serif" font-size="14.00">VaultsModule</text>
</g>
<!-- VaultsModule&#45;&gt;AppModule -->
<g id="edge13" class="edge">
<title>VaultsModule&#45;&gt;AppModule</title>
<path fill="none" stroke="black" d="M72,-122.09C72,-145.13 72,-182 72,-182 72,-182 891.28,-182 891.28,-182"/>
<polygon fill="black" stroke="black" points="891.28,-185.5 901.28,-182 891.28,-178.5 891.28,-185.5"/>
</g>
<!-- AppService -->
<g id="node15" class="node">
<title>AppService</title>
<ellipse fill="#fdb462" stroke="black" cx="1726" cy="-104" rx="56.74" ry="18"/>
<text text-anchor="middle" x="1726" y="-99.8" font-family="Times,serif" font-size="14.00">AppService</text>
</g>
<!-- AppService&#45;&gt;AppModule -->
<g id="edge14" class="edge">
<title>AppService&#45;&gt;AppModule</title>
<path fill="none" stroke="black" d="M1726,-122.09C1726,-145.13 1726,-182 1726,-182 1726,-182 994.82,-182 994.82,-182"/>
<polygon fill="black" stroke="black" points="994.82,-178.5 984.82,-182 994.82,-185.5 994.82,-178.5"/>
</g>
</g>
</svg>
