<?xml version="1.0" encoding="UTF-8" standalone="no"?>
<!DOCTYPE svg PUBLIC "-//W3C//DTD SVG 1.1//EN"
 "http://www.w3.org/Graphics/SVG/1.1/DTD/svg11.dtd">
<!-- Generated by graphviz version 2.47.0 (20210316.0004)
 -->
<!-- Title: dependencies Pages: 1 -->
<svg width="1698pt" height="211pt"
 viewBox="0.00 0.00 1698.00 211.00" xmlns="http://www.w3.org/2000/svg" xmlns:xlink="http://www.w3.org/1999/xlink">
<g id="graph0" class="graph" transform="scale(1 1) rotate(0) translate(4 207)">
<title>dependencies</title>
<polygon fill="white" stroke="transparent" points="-4,4 -4,-207 1694,-207 1694,4 -4,4"/>
<text text-anchor="start" x="824.01" y="-42.4" font-family="Times-12" font-weight="bold" font-size="14.00">Legend</text>
<polygon fill="#ffffb3" stroke="transparent" points="611,-10 611,-30 631,-30 631,-10 611,-10"/>
<text text-anchor="start" x="634.63" y="-15.4" font-family="Times-12" font-size="14.00"> &#160;Declarations</text>
<polygon fill="#8dd3c7" stroke="transparent" points="724,-10 724,-30 744,-30 744,-10 724,-10"/>
<text text-anchor="start" x="747.73" y="-15.4" font-family="Times-12" font-size="14.00"> &#160;Module</text>
<polygon fill="#80b1d3" stroke="transparent" points="810,-10 810,-30 830,-30 830,-10 810,-10"/>
<text text-anchor="start" x="833.78" y="-15.4" font-family="Times-12" font-size="14.00"> &#160;Bootstrap</text>
<polygon fill="#fdb462" stroke="transparent" points="907,-10 907,-30 927,-30 927,-10 907,-10"/>
<text text-anchor="start" x="930.67" y="-15.4" font-family="Times-12" font-size="14.00"> &#160;Providers</text>
<polygon fill="#fb8072" stroke="transparent" points="1003,-10 1003,-30 1023,-30 1023,-10 1003,-10"/>
<text text-anchor="start" x="1026.73" y="-15.4" font-family="Times-12" font-size="14.00"> &#160;Exports</text>
<g id="clust1" class="cluster">
<title>cluster_AppModule</title>
<polygon fill="none" stroke="black" stroke-dasharray="1,5" points="8,-70 8,-195 1682,-195 1682,-70 8,-70"/>
</g>
<g id="clust3" class="cluster">
<title>cluster_AppModule_imports</title>
<polygon fill="none" stroke="black" points="154,-78 154,-130 1674,-130 1674,-78 154,-78"/>
</g>
<g id="clust6" class="cluster">
<title>cluster_AppModule_providers</title>
<polygon fill="none" stroke="black" points="16,-78 16,-130 146,-130 146,-78 16,-78"/>
</g>
<!-- AcquireModule -->
<g id="node1" class="node">
<title>AcquireModule</title>
<polygon fill="#8dd3c7" stroke="black" points="1666.14,-122 1663.14,-126 1642.14,-126 1639.14,-122 1561.86,-122 1561.86,-86 1666.14,-86 1666.14,-122"/>
<text text-anchor="middle" x="1614" y="-99.8" font-family="Times,serif" font-size="14.00">AcquireModule</text>
</g>
<!-- AppModule -->
<g id="node13" class="node">
<title>AppModule</title>
<polygon fill="#8dd3c7" stroke="black" points="909.66,-187 906.66,-191 885.66,-191 882.66,-187 826.34,-187 826.34,-151 909.66,-151 909.66,-187"/>
<text text-anchor="middle" x="868" y="-164.8" font-family="Times,serif" font-size="14.00">AppModule</text>
</g>
<!-- AcquireModule&#45;&gt;AppModule -->
<g id="edge1" class="edge">
<title>AcquireModule&#45;&gt;AppModule</title>
<path fill="none" stroke="black" d="M1614,-122.09C1614,-145.13 1614,-182 1614,-182 1614,-182 919.71,-182 919.71,-182"/>
<polygon fill="black" stroke="black" points="919.71,-178.5 909.71,-182 919.71,-185.5 919.71,-178.5"/>
</g>
<!-- AssetsModule -->
<g id="node2" class="node">
<title>AssetsModule</title>
<polygon fill="#8dd3c7" stroke="black" points="1544.1,-122 1541.1,-126 1520.1,-126 1517.1,-122 1447.9,-122 1447.9,-86 1544.1,-86 1544.1,-122"/>
<text text-anchor="middle" x="1496" y="-99.8" font-family="Times,serif" font-size="14.00">AssetsModule</text>
</g>
<!-- AssetsModule&#45;&gt;AppModule -->
<g id="edge2" class="edge">
<title>AssetsModule&#45;&gt;AppModule</title>
<path fill="none" stroke="black" d="M1496,-122.04C1496,-143.66 1496,-177 1496,-177 1496,-177 919.69,-177 919.69,-177"/>
<polygon fill="black" stroke="black" points="919.69,-173.5 909.69,-177 919.69,-180.5 919.69,-173.5"/>
</g>
<!-- AuthModule -->
<g id="node3" class="node">
<title>AuthModule</title>
<polygon fill="#8dd3c7" stroke="black" points="1429.55,-122 1426.55,-126 1405.55,-126 1402.55,-122 1342.45,-122 1342.45,-86 1429.55,-86 1429.55,-122"/>
<text text-anchor="middle" x="1386" y="-99.8" font-family="Times,serif" font-size="14.00">AuthModule</text>
</g>
<!-- AuthModule&#45;&gt;AppModule -->
<g id="edge3" class="edge">
<title>AuthModule&#45;&gt;AppModule</title>
<path fill="none" stroke="black" d="M1386,-122.22C1386,-142.37 1386,-172 1386,-172 1386,-172 919.95,-172 919.95,-172"/>
<polygon fill="black" stroke="black" points="919.95,-168.5 909.95,-172 919.95,-175.5 919.95,-168.5"/>
</g>
<!-- AwsModule -->
<g id="node4" class="node">
<title>AwsModule</title>
<polygon fill="#8dd3c7" stroke="black" points="1324.71,-122 1321.71,-126 1300.71,-126 1297.71,-122 1239.29,-122 1239.29,-86 1324.71,-86 1324.71,-122"/>
<text text-anchor="middle" x="1282" y="-99.8" font-family="Times,serif" font-size="14.00">AwsModule</text>
</g>
<!-- AwsModule&#45;&gt;AppModule -->
<g id="edge4" class="edge">
<title>AwsModule&#45;&gt;AppModule</title>
<path fill="none" stroke="black" d="M1282,-122.22C1282,-140.83 1282,-167 1282,-167 1282,-167 919.97,-167 919.97,-167"/>
<polygon fill="black" stroke="black" points="919.97,-163.5 909.97,-167 919.97,-170.5 919.97,-163.5"/>
</g>
<!-- BlockchainModule -->
<g id="node5" class="node">
<title>BlockchainModule</title>
<polygon fill="#8dd3c7" stroke="black" points="1221.81,-122 1218.81,-126 1197.81,-126 1194.81,-122 1098.19,-122 1098.19,-86 1221.81,-86 1221.81,-122"/>
<text text-anchor="middle" x="1160" y="-99.8" font-family="Times,serif" font-size="14.00">BlockchainModule</text>
</g>
<!-- BlockchainModule&#45;&gt;AppModule -->
<g id="edge5" class="edge">
<title>BlockchainModule&#45;&gt;AppModule</title>
<path fill="none" stroke="black" d="M1160,-122.03C1160,-139.06 1160,-162 1160,-162 1160,-162 919.84,-162 919.84,-162"/>
<polygon fill="black" stroke="black" points="919.84,-158.5 909.84,-162 919.84,-165.5 919.84,-158.5"/>
</g>
<!-- ContributionModule -->
<g id="node6" class="node">
<title>ContributionModule</title>
<polygon fill="#8dd3c7" stroke="black" points="1080.61,-122 1077.61,-126 1056.61,-126 1053.61,-122 949.39,-122 949.39,-86 1080.61,-86 1080.61,-122"/>
<text text-anchor="middle" x="1015" y="-99.8" font-family="Times,serif" font-size="14.00">ContributionModule</text>
</g>
<!-- ContributionModule&#45;&gt;AppModule -->
<g id="edge6" class="edge">
<title>ContributionModule&#45;&gt;AppModule</title>
<path fill="none" stroke="black" d="M1015,-122.24C1015,-137.57 1015,-157 1015,-157 1015,-157 919.73,-157 919.73,-157"/>
<polygon fill="black" stroke="black" points="919.73,-153.5 909.73,-157 919.73,-160.5 919.73,-153.5"/>
</g>
<!-- DistributionModule -->
<g id="node7" class="node">
<title>DistributionModule</title>
<polygon fill="#8dd3c7" stroke="black" points="931.71,-122 928.71,-126 907.71,-126 904.71,-122 804.29,-122 804.29,-86 931.71,-86 931.71,-122"/>
<text text-anchor="middle" x="868" y="-99.8" font-family="Times,serif" font-size="14.00">DistributionModule</text>
</g>
<!-- DistributionModule&#45;&gt;AppModule -->
<g id="edge7" class="edge">
<title>DistributionModule&#45;&gt;AppModule</title>
<path fill="none" stroke="black" d="M868,-122.11C868,-122.11 868,-140.99 868,-140.99"/>
<polygon fill="black" stroke="black" points="864.5,-140.99 868,-150.99 871.5,-140.99 864.5,-140.99"/>
</g>
<!-- JwtGlobalModule -->
<g id="node8" class="node">
<title>JwtGlobalModule</title>
<polygon fill="#8dd3c7" stroke="black" points="786.59,-122 783.59,-126 762.59,-126 759.59,-122 669.41,-122 669.41,-86 786.59,-86 786.59,-122"/>
<text text-anchor="middle" x="728" y="-99.8" font-family="Times,serif" font-size="14.00">JwtGlobalModule</text>
</g>
<!-- JwtGlobalModule&#45;&gt;AppModule -->
<g id="edge8" class="edge">
<title>JwtGlobalModule&#45;&gt;AppModule</title>
<path fill="none" stroke="black" d="M728,-122.24C728,-137.57 728,-157 728,-157 728,-157 816,-157 816,-157"/>
<polygon fill="black" stroke="black" points="816,-160.5 826,-157 816,-153.5 816,-160.5"/>
</g>
<!-- LpTokensModule -->
<g id="node9" class="node">
<title>LpTokensModule</title>
<polygon fill="#8dd3c7" stroke="black" points="651.31,-122 648.31,-126 627.31,-126 624.31,-122 534.69,-122 534.69,-86 651.31,-86 651.31,-122"/>
<text text-anchor="middle" x="593" y="-99.8" font-family="Times,serif" font-size="14.00">LpTokensModule</text>
</g>
<!-- LpTokensModule&#45;&gt;AppModule -->
<g id="edge9" class="edge">
<title>LpTokensModule&#45;&gt;AppModule</title>
<path fill="none" stroke="black" d="M593,-122.03C593,-139.06 593,-162 593,-162 593,-162 816.23,-162 816.23,-162"/>
<polygon fill="black" stroke="black" points="816.23,-165.5 826.23,-162 816.23,-158.5 816.23,-165.5"/>
</g>
<!-- TransactionsModule -->
<g id="node10" class="node">
<title>TransactionsModule</title>
<polygon fill="#8dd3c7" stroke="black" points="516.58,-122 513.58,-126 492.58,-126 489.58,-122 385.42,-122 385.42,-86 516.58,-86 516.58,-122"/>
<text text-anchor="middle" x="451" y="-99.8" font-family="Times,serif" font-size="14.00">TransactionsModule</text>
</g>
<!-- TransactionsModule&#45;&gt;AppModule -->
<g id="edge10" class="edge">
<title>TransactionsModule&#45;&gt;AppModule</title>
<path fill="none" stroke="black" d="M451,-122.22C451,-140.83 451,-167 451,-167 451,-167 816.11,-167 816.11,-167"/>
<polygon fill="black" stroke="black" points="816.11,-170.5 826.11,-167 816.11,-163.5 816.11,-170.5"/>
</g>
<!-- UsersModule -->
<g id="node11" class="node">
<title>UsersModule</title>
<polygon fill="#8dd3c7" stroke="black" points="367.92,-122 364.92,-126 343.92,-126 340.92,-122 276.08,-122 276.08,-86 367.92,-86 367.92,-122"/>
<text text-anchor="middle" x="322" y="-99.8" font-family="Times,serif" font-size="14.00">UsersModule</text>
</g>
<!-- UsersModule&#45;&gt;AppModule -->
<g id="edge11" class="edge">
<title>UsersModule&#45;&gt;AppModule</title>
<path fill="none" stroke="black" d="M322,-122.22C322,-142.37 322,-172 322,-172 322,-172 816.06,-172 816.06,-172"/>
<polygon fill="black" stroke="black" points="816.06,-175.5 826.06,-172 816.06,-168.5 816.06,-175.5"/>
</g>
<!-- VaultsModule -->
<g id="node12" class="node">
<title>VaultsModule</title>
<polygon fill="#8dd3c7" stroke="black" points="258.1,-122 255.1,-126 234.1,-126 231.1,-122 161.9,-122 161.9,-86 258.1,-86 258.1,-122"/>
<text text-anchor="middle" x="210" y="-99.8" font-family="Times,serif" font-size="14.00">VaultsModule</text>
</g>
<!-- VaultsModule&#45;&gt;AppModule -->
<g id="edge12" class="edge">
<title>VaultsModule&#45;&gt;AppModule</title>
<path fill="none" stroke="black" d="M210,-122.04C210,-143.66 210,-177 210,-177 210,-177 816.34,-177 816.34,-177"/>
<polygon fill="black" stroke="black" points="816.34,-180.5 826.34,-177 816.34,-173.5 816.34,-180.5"/>
</g>
<!-- AppService -->
<g id="node14" class="node">
<title>AppService</title>
<ellipse fill="#fdb462" stroke="black" cx="81" cy="-104" rx="56.74" ry="18"/>
<text text-anchor="middle" x="81" y="-99.8" font-family="Times,serif" font-size="14.00">AppService</text>
</g>
<!-- AppService&#45;&gt;AppModule -->
<g id="edge13" class="edge">
<title>AppService&#45;&gt;AppModule</title>
<path fill="none" stroke="black" d="M81,-122.09C81,-145.13 81,-182 81,-182 81,-182 816.24,-182 816.24,-182"/>
<polygon fill="black" stroke="black" points="816.24,-185.5 826.24,-182 816.24,-178.5 816.24,-185.5"/>
</g>
</g>
</svg>
