<?xml version="1.0" encoding="UTF-8" standalone="no"?>
<!DOCTYPE svg PUBLIC "-//W3C//DTD SVG 1.1//EN"
 "http://www.w3.org/Graphics/SVG/1.1/DTD/svg11.dtd">
<!-- Generated by graphviz version 2.47.0 (20210316.0004)
 -->
<!-- Title: dependencies Pages: 1 -->
<svg width="907pt" height="284pt"
 viewBox="0.00 0.00 907.00 284.00" xmlns="http://www.w3.org/2000/svg" xmlns:xlink="http://www.w3.org/1999/xlink">
<g id="graph0" class="graph" transform="scale(1 1) rotate(0) translate(4 280)">
<title>dependencies</title>
<polygon fill="white" stroke="transparent" points="-4,4 -4,-280 903,-280 903,4 -4,4"/>
<text text-anchor="start" x="428.51" y="-42.4" font-family="Times-12" font-weight="bold" font-size="14.00">Legend</text>
<polygon fill="#ffffb3" stroke="transparent" points="215.5,-10 215.5,-30 235.5,-30 235.5,-10 215.5,-10"/>
<text text-anchor="start" x="239.13" y="-15.4" font-family="Times-12" font-size="14.00"> &#160;Declarations</text>
<polygon fill="#8dd3c7" stroke="transparent" points="328.5,-10 328.5,-30 348.5,-30 348.5,-10 328.5,-10"/>
<text text-anchor="start" x="352.23" y="-15.4" font-family="Times-12" font-size="14.00"> &#160;Module</text>
<polygon fill="#80b1d3" stroke="transparent" points="414.5,-10 414.5,-30 434.5,-30 434.5,-10 414.5,-10"/>
<text text-anchor="start" x="438.28" y="-15.4" font-family="Times-12" font-size="14.00"> &#160;Bootstrap</text>
<polygon fill="#fdb462" stroke="transparent" points="511.5,-10 511.5,-30 531.5,-30 531.5,-10 511.5,-10"/>
<text text-anchor="start" x="535.17" y="-15.4" font-family="Times-12" font-size="14.00"> &#160;Providers</text>
<polygon fill="#fb8072" stroke="transparent" points="607.5,-10 607.5,-30 627.5,-30 627.5,-10 607.5,-10"/>
<text text-anchor="start" x="631.23" y="-15.4" font-family="Times-12" font-size="14.00"> &#160;Exports</text>
<g id="clust1" class="cluster">
<title>cluster_VaultsModule</title>
<polygon fill="none" stroke="black" stroke-dasharray="1,5" points="8,-70 8,-268 891,-268 891,-70 8,-70"/>
</g>
<g id="clust3" class="cluster">
<title>cluster_VaultsModule_imports</title>
<polygon fill="none" stroke="black" points="360,-78 360,-130 883,-130 883,-78 360,-78"/>
</g>
<g id="clust4" class="cluster">
<title>cluster_VaultsModule_exports</title>
<polygon fill="none" stroke="black" points="382,-208 382,-260 642,-260 642,-208 382,-208"/>
</g>
<g id="clust6" class="cluster">
<title>cluster_VaultsModule_providers</title>
<polygon fill="none" stroke="black" points="16,-78 16,-130 352,-130 352,-78 16,-78"/>
</g>
<!-- AwsModule -->
<g id="node1" class="node">
<title>AwsModule</title>
<polygon fill="#8dd3c7" stroke="black" points="874.71,-122 871.71,-126 850.71,-126 847.71,-122 789.29,-122 789.29,-86 874.71,-86 874.71,-122"/>
<text text-anchor="middle" x="832" y="-99.8" font-family="Times,serif" font-size="14.00">AwsModule</text>
</g>
<!-- VaultsModule -->
<g id="node5" class="node">
<title>VaultsModule</title>
<polygon fill="#8dd3c7" stroke="black" points="552.1,-187 549.1,-191 528.1,-191 525.1,-187 455.9,-187 455.9,-151 552.1,-151 552.1,-187"/>
<text text-anchor="middle" x="504" y="-164.8" font-family="Times,serif" font-size="14.00">VaultsModule</text>
</g>
<!-- AwsModule&#45;&gt;VaultsModule -->
<g id="edge1" class="edge">
<title>AwsModule&#45;&gt;VaultsModule</title>
<path fill="none" stroke="black" d="M832,-122.28C832,-143.32 832,-175 832,-175 832,-175 562.4,-175 562.4,-175"/>
<polygon fill="black" stroke="black" points="562.4,-171.5 552.4,-175 562.4,-178.5 562.4,-171.5"/>
</g>
<!-- BlockchainModule -->
<g id="node2" class="node">
<title>BlockchainModule</title>
<polygon fill="#8dd3c7" stroke="black" points="771.81,-122 768.81,-126 747.81,-126 744.81,-122 648.19,-122 648.19,-86 771.81,-86 771.81,-122"/>
<text text-anchor="middle" x="710" y="-99.8" font-family="Times,serif" font-size="14.00">BlockchainModule</text>
</g>
<!-- BlockchainModule&#45;&gt;VaultsModule -->
<g id="edge2" class="edge">
<title>BlockchainModule&#45;&gt;VaultsModule</title>
<path fill="none" stroke="black" d="M710,-122.02C710,-139.37 710,-163 710,-163 710,-163 562.3,-163 562.3,-163"/>
<polygon fill="black" stroke="black" points="562.3,-159.5 552.3,-163 562.3,-166.5 562.3,-159.5"/>
</g>
<!-- LifecycleModule -->
<g id="node3" class="node">
<title>LifecycleModule</title>
<polygon fill="#8dd3c7" stroke="black" points="630.4,-122 627.4,-126 606.4,-126 603.4,-122 517.6,-122 517.6,-86 630.4,-86 630.4,-122"/>
<text text-anchor="middle" x="574" y="-99.8" font-family="Times,serif" font-size="14.00">LifecycleModule</text>
</g>
<!-- LifecycleModule&#45;&gt;VaultsModule -->
<g id="edge3" class="edge">
<title>LifecycleModule&#45;&gt;VaultsModule</title>
<path fill="none" stroke="black" d="M534.92,-122.11C534.92,-122.11 534.92,-140.99 534.92,-140.99"/>
<polygon fill="black" stroke="black" points="531.42,-140.99 534.92,-150.99 538.42,-140.99 531.42,-140.99"/>
</g>
<!-- TransactionsModule -->
<g id="node4" class="node">
<title>TransactionsModule</title>
<polygon fill="#8dd3c7" stroke="black" points="499.58,-122 496.58,-126 475.58,-126 472.58,-122 368.42,-122 368.42,-86 499.58,-86 499.58,-122"/>
<text text-anchor="middle" x="434" y="-99.8" font-family="Times,serif" font-size="14.00">TransactionsModule</text>
</g>
<!-- TransactionsModule&#45;&gt;VaultsModule -->
<g id="edge4" class="edge">
<title>TransactionsModule&#45;&gt;VaultsModule</title>
<path fill="none" stroke="black" d="M477.75,-122.11C477.75,-122.11 477.75,-140.99 477.75,-140.99"/>
<polygon fill="black" stroke="black" points="474.25,-140.99 477.75,-150.99 481.25,-140.99 474.25,-140.99"/>
</g>
<!-- DraftVaultsService  -->
<g id="node6" class="node">
<title>DraftVaultsService </title>
<polygon fill="#fb8072" stroke="black" points="633.56,-252 506.44,-252 506.44,-216 633.56,-216 633.56,-252"/>
<text text-anchor="middle" x="570" y="-229.8" font-family="Times,serif" font-size="14.00">DraftVaultsService </text>
</g>
<!-- VaultsModule&#45;&gt;DraftVaultsService  -->
<g id="edge5" class="edge">
<title>VaultsModule&#45;&gt;DraftVaultsService </title>
<path fill="none" stroke="black" stroke-dasharray="5,2" d="M529.13,-187.11C529.13,-187.11 529.13,-205.99 529.13,-205.99"/>
<polygon fill="black" stroke="black" points="525.63,-205.99 529.13,-215.99 532.63,-205.99 525.63,-205.99"/>
</g>
<!-- VaultsService  -->
<g id="node7" class="node">
<title>VaultsService </title>
<polygon fill="#fb8072" stroke="black" points="488.02,-252 389.98,-252 389.98,-216 488.02,-216 488.02,-252"/>
<text text-anchor="middle" x="439" y="-229.8" font-family="Times,serif" font-size="14.00">VaultsService </text>
</g>
<!-- VaultsModule&#45;&gt;VaultsService  -->
<g id="edge6" class="edge">
<title>VaultsModule&#45;&gt;VaultsService </title>
<path fill="none" stroke="black" stroke-dasharray="5,2" d="M471.98,-187.11C471.98,-187.11 471.98,-205.99 471.98,-205.99"/>
<polygon fill="black" stroke="black" points="468.48,-205.99 471.98,-215.99 475.48,-205.99 468.48,-205.99"/>
</g>
<!-- DraftVaultsService -->
<g id="node8" class="node">
<title>DraftVaultsService</title>
<ellipse fill="#fdb462" stroke="black" cx="258" cy="-104" rx="85.65" ry="18"/>
<text text-anchor="middle" x="258" y="-99.8" font-family="Times,serif" font-size="14.00">DraftVaultsService</text>
</g>
<!-- DraftVaultsService&#45;&gt;VaultsModule -->
<g id="edge7" class="edge">
<title>DraftVaultsService&#45;&gt;VaultsModule</title>
<path fill="none" stroke="black" d="M258,-122.02C258,-139.37 258,-163 258,-163 258,-163 445.69,-163 445.69,-163"/>
<polygon fill="black" stroke="black" points="445.69,-166.5 455.69,-163 445.69,-159.5 445.69,-166.5"/>
</g>
<!-- VaultsService -->
<g id="node9" class="node">
<title>VaultsService</title>
<ellipse fill="#fdb462" stroke="black" cx="89" cy="-104" rx="65.4" ry="18"/>
<text text-anchor="middle" x="89" y="-99.8" font-family="Times,serif" font-size="14.00">VaultsService</text>
</g>
<!-- VaultsService&#45;&gt;VaultsModule -->
<g id="edge8" class="edge">
<title>VaultsService&#45;&gt;VaultsModule</title>
<path fill="none" stroke="black" d="M89,-122.28C89,-143.32 89,-175 89,-175 89,-175 445.58,-175 445.58,-175"/>
<polygon fill="black" stroke="black" points="445.58,-178.5 455.58,-175 445.58,-171.5 445.58,-178.5"/>
</g>
</g>
</svg>
