<?xml version="1.0" encoding="UTF-8" standalone="no"?>
<!DOCTYPE svg PUBLIC "-//W3C//DTD SVG 1.1//EN"
 "http://www.w3.org/Graphics/SVG/1.1/DTD/svg11.dtd">
<!-- Generated by graphviz version 2.47.0 (20210316.0004)
 -->
<!-- Title: dependencies Pages: 1 -->
<svg width="907pt" height="284pt"
 viewBox="0.00 0.00 907.00 284.00" xmlns="http://www.w3.org/2000/svg" xmlns:xlink="http://www.w3.org/1999/xlink">
<g id="graph0" class="graph" transform="scale(1 1) rotate(0) translate(4 280)">
<title>dependencies</title>
<polygon fill="white" stroke="transparent" points="-4,4 -4,-280 903,-280 903,4 -4,4"/>
<text text-anchor="start" x="428.51" y="-42.4" font-family="Times-12" font-weight="bold" font-size="14.00">Legend</text>
<polygon fill="#ffffb3" stroke="transparent" points="215.5,-10 215.5,-30 235.5,-30 235.5,-10 215.5,-10"/>
<text text-anchor="start" x="239.13" y="-15.4" font-family="Times-12" font-size="14.00"> &#160;Declarations</text>
<polygon fill="#8dd3c7" stroke="transparent" points="328.5,-10 328.5,-30 348.5,-30 348.5,-10 328.5,-10"/>
<text text-anchor="start" x="352.23" y="-15.4" font-family="Times-12" font-size="14.00"> &#160;Module</text>
<polygon fill="#80b1d3" stroke="transparent" points="414.5,-10 414.5,-30 434.5,-30 434.5,-10 414.5,-10"/>
<text text-anchor="start" x="438.28" y="-15.4" font-family="Times-12" font-size="14.00"> &#160;Bootstrap</text>
<polygon fill="#fdb462" stroke="transparent" points="511.5,-10 511.5,-30 531.5,-30 531.5,-10 511.5,-10"/>
<text text-anchor="start" x="535.17" y="-15.4" font-family="Times-12" font-size="14.00"> &#160;Providers</text>
<polygon fill="#fb8072" stroke="transparent" points="607.5,-10 607.5,-30 627.5,-30 627.5,-10 607.5,-10"/>
<text text-anchor="start" x="631.23" y="-15.4" font-family="Times-12" font-size="14.00"> &#160;Exports</text>
<g id="clust1" class="cluster">
<title>cluster_VaultsModule</title>
<polygon fill="none" stroke="black" stroke-dasharray="1,5" points="8,-70 8,-268 891,-268 891,-70 8,-70"/>
</g>
<g id="clust6" class="cluster">
<title>cluster_VaultsModule_providers</title>
<polygon fill="none" stroke="black" points="547,-78 547,-130 883,-130 883,-78 547,-78"/>
</g>
<g id="clust3" class="cluster">
<title>cluster_VaultsModule_imports</title>
<polygon fill="none" stroke="black" points="16,-78 16,-130 539,-130 539,-78 16,-78"/>
</g>
<g id="clust4" class="cluster">
<title>cluster_VaultsModule_exports</title>
<polygon fill="none" stroke="black" points="305,-208 305,-260 565,-260 565,-208 305,-208"/>
</g>
<!-- AwsModule -->
<g id="node1" class="node">
<title>AwsModule</title>
<polygon fill="#8dd3c7" stroke="black" points="530.71,-122 527.71,-126 506.71,-126 503.71,-122 445.29,-122 445.29,-86 530.71,-86 530.71,-122"/>
<text text-anchor="middle" x="488" y="-99.8" font-family="Times,serif" font-size="14.00">AwsModule</text>
</g>
<!-- VaultsModule -->
<g id="node5" class="node">
<title>VaultsModule</title>
<polygon fill="#8dd3c7" stroke="black" points="475.1,-187 472.1,-191 451.1,-191 448.1,-187 378.9,-187 378.9,-151 475.1,-151 475.1,-187"/>
<text text-anchor="middle" x="427" y="-164.8" font-family="Times,serif" font-size="14.00">VaultsModule</text>
</g>
<!-- AwsModule&#45;&gt;VaultsModule -->
<g id="edge1" class="edge">
<title>AwsModule&#45;&gt;VaultsModule</title>
<path fill="none" stroke="black" d="M460.22,-122.11C460.22,-122.11 460.22,-140.99 460.22,-140.99"/>
<polygon fill="black" stroke="black" points="456.72,-140.99 460.22,-150.99 463.72,-140.99 456.72,-140.99"/>
</g>
<!-- BlockchainModule -->
<g id="node2" class="node">
<title>BlockchainModule</title>
<polygon fill="#8dd3c7" stroke="black" points="427.81,-122 424.81,-126 403.81,-126 400.81,-122 304.19,-122 304.19,-86 427.81,-86 427.81,-122"/>
<text text-anchor="middle" x="366" y="-99.8" font-family="Times,serif" font-size="14.00">BlockchainModule</text>
</g>
<!-- BlockchainModule&#45;&gt;VaultsModule -->
<g id="edge2" class="edge">
<title>BlockchainModule&#45;&gt;VaultsModule</title>
<path fill="none" stroke="black" d="M403.3,-122.11C403.3,-122.11 403.3,-140.99 403.3,-140.99"/>
<polygon fill="black" stroke="black" points="399.8,-140.99 403.3,-150.99 406.8,-140.99 399.8,-140.99"/>
</g>
<!-- LifecycleModule -->
<g id="node3" class="node">
<title>LifecycleModule</title>
<polygon fill="#8dd3c7" stroke="black" points="286.4,-122 283.4,-126 262.4,-126 259.4,-122 173.6,-122 173.6,-86 286.4,-86 286.4,-122"/>
<text text-anchor="middle" x="230" y="-99.8" font-family="Times,serif" font-size="14.00">LifecycleModule</text>
</g>
<!-- LifecycleModule&#45;&gt;VaultsModule -->
<g id="edge3" class="edge">
<title>LifecycleModule&#45;&gt;VaultsModule</title>
<path fill="none" stroke="black" d="M230,-122.02C230,-139.37 230,-163 230,-163 230,-163 368.81,-163 368.81,-163"/>
<polygon fill="black" stroke="black" points="368.81,-166.5 378.81,-163 368.81,-159.5 368.81,-166.5"/>
</g>
<!-- TransactionsModule -->
<g id="node4" class="node">
<title>TransactionsModule</title>
<polygon fill="#8dd3c7" stroke="black" points="155.58,-122 152.58,-126 131.58,-126 128.58,-122 24.42,-122 24.42,-86 155.58,-86 155.58,-122"/>
<text text-anchor="middle" x="90" y="-99.8" font-family="Times,serif" font-size="14.00">TransactionsModule</text>
</g>
<!-- TransactionsModule&#45;&gt;VaultsModule -->
<g id="edge4" class="edge">
<title>TransactionsModule&#45;&gt;VaultsModule</title>
<path fill="none" stroke="black" d="M90,-122.28C90,-143.32 90,-175 90,-175 90,-175 368.72,-175 368.72,-175"/>
<polygon fill="black" stroke="black" points="368.72,-178.5 378.72,-175 368.72,-171.5 368.72,-178.5"/>
</g>
<!-- DraftVaultsService  -->
<g id="node6" class="node">
<title>DraftVaultsService </title>
<polygon fill="#fb8072" stroke="black" points="556.56,-252 429.44,-252 429.44,-216 556.56,-216 556.56,-252"/>
<text text-anchor="middle" x="493" y="-229.8" font-family="Times,serif" font-size="14.00">DraftVaultsService </text>
</g>
<!-- VaultsModule&#45;&gt;DraftVaultsService  -->
<g id="edge5" class="edge">
<title>VaultsModule&#45;&gt;DraftVaultsService </title>
<path fill="none" stroke="black" stroke-dasharray="5,2" d="M452.13,-187.11C452.13,-187.11 452.13,-205.99 452.13,-205.99"/>
<polygon fill="black" stroke="black" points="448.63,-205.99 452.13,-215.99 455.63,-205.99 448.63,-205.99"/>
</g>
<!-- VaultsService  -->
<g id="node7" class="node">
<title>VaultsService </title>
<polygon fill="#fb8072" stroke="black" points="411.02,-252 312.98,-252 312.98,-216 411.02,-216 411.02,-252"/>
<text text-anchor="middle" x="362" y="-229.8" font-family="Times,serif" font-size="14.00">VaultsService </text>
</g>
<!-- VaultsModule&#45;&gt;VaultsService  -->
<g id="edge6" class="edge">
<title>VaultsModule&#45;&gt;VaultsService </title>
<path fill="none" stroke="black" stroke-dasharray="5,2" d="M394.98,-187.11C394.98,-187.11 394.98,-205.99 394.98,-205.99"/>
<polygon fill="black" stroke="black" points="391.48,-205.99 394.98,-215.99 398.48,-205.99 391.48,-205.99"/>
</g>
<!-- DraftVaultsService -->
<g id="node8" class="node">
<title>DraftVaultsService</title>
<ellipse fill="#fdb462" stroke="black" cx="789" cy="-104" rx="85.65" ry="18"/>
<text text-anchor="middle" x="789" y="-99.8" font-family="Times,serif" font-size="14.00">DraftVaultsService</text>
</g>
<!-- DraftVaultsService&#45;&gt;VaultsModule -->
<g id="edge7" class="edge">
<title>DraftVaultsService&#45;&gt;VaultsModule</title>
<path fill="none" stroke="black" d="M789,-122.28C789,-143.32 789,-175 789,-175 789,-175 485.07,-175 485.07,-175"/>
<polygon fill="black" stroke="black" points="485.07,-171.5 475.07,-175 485.07,-178.5 485.07,-171.5"/>
</g>
<!-- VaultsService -->
<g id="node9" class="node">
<title>VaultsService</title>
<ellipse fill="#fdb462" stroke="black" cx="620" cy="-104" rx="65.4" ry="18"/>
<text text-anchor="middle" x="620" y="-99.8" font-family="Times,serif" font-size="14.00">VaultsService</text>
</g>
<!-- VaultsService&#45;&gt;VaultsModule -->
<g id="edge8" class="edge">
<title>VaultsService&#45;&gt;VaultsModule</title>
<path fill="none" stroke="black" d="M620.99,-122.02C620.99,-139.37 620.99,-163 620.99,-163 620.99,-163 485.45,-163 485.45,-163"/>
<polygon fill="black" stroke="black" points="485.45,-159.5 475.45,-163 485.45,-166.5 485.45,-159.5"/>
</g>
</g>
</svg>
