<?xml version="1.0" encoding="UTF-8" standalone="no"?>
<!DOCTYPE svg PUBLIC "-//W3C//DTD SVG 1.1//EN"
 "http://www.w3.org/Graphics/SVG/1.1/DTD/svg11.dtd">
<!-- Generated by graphviz version 2.47.0 (20210316.0004)
 -->
<!-- Title: dependencies Pages: 1 -->
<svg width="650pt" height="284pt"
 viewBox="0.00 0.00 650.00 284.00" xmlns="http://www.w3.org/2000/svg" xmlns:xlink="http://www.w3.org/1999/xlink">
<g id="graph0" class="graph" transform="scale(1 1) rotate(0) translate(4 280)">
<title>dependencies</title>
<polygon fill="white" stroke="transparent" points="-4,4 -4,-280 646,-280 646,4 -4,4"/>
<text text-anchor="start" x="300.01" y="-42.4" font-family="Times-12" font-weight="bold" font-size="14.00">Legend</text>
<polygon fill="#ffffb3" stroke="transparent" points="87,-10 87,-30 107,-30 107,-10 87,-10"/>
<text text-anchor="start" x="110.63" y="-15.4" font-family="Times-12" font-size="14.00"> &#160;Declarations</text>
<polygon fill="#8dd3c7" stroke="transparent" points="200,-10 200,-30 220,-30 220,-10 200,-10"/>
<text text-anchor="start" x="223.73" y="-15.4" font-family="Times-12" font-size="14.00"> &#160;Module</text>
<polygon fill="#80b1d3" stroke="transparent" points="286,-10 286,-30 306,-30 306,-10 286,-10"/>
<text text-anchor="start" x="309.78" y="-15.4" font-family="Times-12" font-size="14.00"> &#160;Bootstrap</text>
<polygon fill="#fdb462" stroke="transparent" points="383,-10 383,-30 403,-30 403,-10 383,-10"/>
<text text-anchor="start" x="406.67" y="-15.4" font-family="Times-12" font-size="14.00"> &#160;Providers</text>
<polygon fill="#fb8072" stroke="transparent" points="479,-10 479,-30 499,-30 499,-10 479,-10"/>
<text text-anchor="start" x="502.73" y="-15.4" font-family="Times-12" font-size="14.00"> &#160;Exports</text>
<g id="clust1" class="cluster">
<title>cluster_LifecycleModule</title>
<polygon fill="none" stroke="black" stroke-dasharray="1,5" points="8,-70 8,-268 634,-268 634,-70 8,-70"/>
</g>
<g id="clust6" class="cluster">
<title>cluster_LifecycleModule_providers</title>
<polygon fill="none" stroke="black" points="458,-78 458,-130 626,-130 626,-78 458,-78"/>
</g>
<g id="clust3" class="cluster">
<title>cluster_LifecycleModule_imports</title>
<polygon fill="none" stroke="black" points="16,-78 16,-130 450,-130 450,-78 16,-78"/>
</g>
<g id="clust4" class="cluster">
<title>cluster_LifecycleModule_exports</title>
<polygon fill="none" stroke="black" points="242,-208 242,-260 372,-260 372,-208 242,-208"/>
</g>
<!-- BlockchainModule -->
<g id="node1" class="node">
<title>BlockchainModule</title>
<polygon fill="#8dd3c7" stroke="black" points="441.81,-122 438.81,-126 417.81,-126 414.81,-122 318.19,-122 318.19,-86 441.81,-86 441.81,-122"/>
<text text-anchor="middle" x="380" y="-99.8" font-family="Times,serif" font-size="14.00">BlockchainModule</text>
</g>
<!-- LifecycleModule -->
<g id="node4" class="node">
<title>LifecycleModule</title>
<polygon fill="#8dd3c7" stroke="black" points="363.4,-187 360.4,-191 339.4,-191 336.4,-187 250.6,-187 250.6,-151 363.4,-151 363.4,-187"/>
<text text-anchor="middle" x="307" y="-164.8" font-family="Times,serif" font-size="14.00">LifecycleModule</text>
</g>
<!-- BlockchainModule&#45;&gt;LifecycleModule -->
<g id="edge1" class="edge">
<title>BlockchainModule&#45;&gt;LifecycleModule</title>
<path fill="none" stroke="black" d="M340.77,-122.11C340.77,-122.11 340.77,-140.99 340.77,-140.99"/>
<polygon fill="black" stroke="black" points="337.27,-140.99 340.77,-150.99 344.27,-140.99 337.27,-140.99"/>
</g>
<!-- ContributionModule -->
<g id="node2" class="node">
<title>ContributionModule</title>
<polygon fill="#8dd3c7" stroke="black" points="300.61,-122 297.61,-126 276.61,-126 273.61,-122 169.39,-122 169.39,-86 300.61,-86 300.61,-122"/>
<text text-anchor="middle" x="235" y="-99.8" font-family="Times,serif" font-size="14.00">ContributionModule</text>
</g>
<!-- ContributionModule&#45;&gt;LifecycleModule -->
<g id="edge2" class="edge">
<title>ContributionModule&#45;&gt;LifecycleModule</title>
<path fill="none" stroke="black" d="M275.68,-122.11C275.68,-122.11 275.68,-140.99 275.68,-140.99"/>
<polygon fill="black" stroke="black" points="272.18,-140.99 275.68,-150.99 279.18,-140.99 272.18,-140.99"/>
</g>
<!-- DistributionModule -->
<g id="node3" class="node">
<title>DistributionModule</title>
<polygon fill="#8dd3c7" stroke="black" points="151.71,-122 148.71,-126 127.71,-126 124.71,-122 24.29,-122 24.29,-86 151.71,-86 151.71,-122"/>
<text text-anchor="middle" x="88" y="-99.8" font-family="Times,serif" font-size="14.00">DistributionModule</text>
</g>
<!-- DistributionModule&#45;&gt;LifecycleModule -->
<g id="edge3" class="edge">
<title>DistributionModule&#45;&gt;LifecycleModule</title>
<path fill="none" stroke="black" d="M88,-122.11C88,-141.34 88,-169 88,-169 88,-169 240.6,-169 240.6,-169"/>
<polygon fill="black" stroke="black" points="240.6,-172.5 250.6,-169 240.6,-165.5 240.6,-172.5"/>
</g>
<!-- LifecycleService  -->
<g id="node5" class="node">
<title>LifecycleService </title>
<polygon fill="#fb8072" stroke="black" points="364.33,-252 249.67,-252 249.67,-216 364.33,-216 364.33,-252"/>
<text text-anchor="middle" x="307" y="-229.8" font-family="Times,serif" font-size="14.00">LifecycleService </text>
</g>
<!-- LifecycleModule&#45;&gt;LifecycleService  -->
<g id="edge4" class="edge">
<title>LifecycleModule&#45;&gt;LifecycleService </title>
<path fill="none" stroke="black" stroke-dasharray="5,2" d="M307,-187.11C307,-187.11 307,-205.99 307,-205.99"/>
<polygon fill="black" stroke="black" points="303.5,-205.99 307,-215.99 310.5,-205.99 303.5,-205.99"/>
</g>
<!-- LifecycleService -->
<g id="node6" class="node">
<title>LifecycleService</title>
<ellipse fill="#fdb462" stroke="black" cx="542" cy="-104" rx="76.4" ry="18"/>
<text text-anchor="middle" x="542" y="-99.8" font-family="Times,serif" font-size="14.00">LifecycleService</text>
</g>
<!-- LifecycleService&#45;&gt;LifecycleModule -->
<g id="edge5" class="edge">
<title>LifecycleService&#45;&gt;LifecycleModule</title>
<path fill="none" stroke="black" d="M542,-122.11C542,-141.34 542,-169 542,-169 542,-169 373.29,-169 373.29,-169"/>
<polygon fill="black" stroke="black" points="373.29,-165.5 363.29,-169 373.29,-172.5 373.29,-165.5"/>
</g>
</g>
</svg>
