<?xml version="1.0" encoding="UTF-8" standalone="no"?>
<!DOCTYPE svg PUBLIC "-//W3C//DTD SVG 1.1//EN"
 "http://www.w3.org/Graphics/SVG/1.1/DTD/svg11.dtd">
<!-- Generated by graphviz version 2.47.0 (20210316.0004)
 -->
<!-- Title: dependencies Pages: 1 -->
<svg width="838pt" height="284pt"
 viewBox="0.00 0.00 838.00 284.00" xmlns="http://www.w3.org/2000/svg" xmlns:xlink="http://www.w3.org/1999/xlink">
<g id="graph0" class="graph" transform="scale(1 1) rotate(0) translate(4 280)">
<title>dependencies</title>
<polygon fill="white" stroke="transparent" points="-4,4 -4,-280 834,-280 834,4 -4,4"/>
<text text-anchor="start" x="394.01" y="-42.4" font-family="Times-12" font-weight="bold" font-size="14.00">Legend</text>
<polygon fill="#ffffb3" stroke="transparent" points="181,-10 181,-30 201,-30 201,-10 181,-10"/>
<text text-anchor="start" x="204.63" y="-15.4" font-family="Times-12" font-size="14.00"> &#160;Declarations</text>
<polygon fill="#8dd3c7" stroke="transparent" points="294,-10 294,-30 314,-30 314,-10 294,-10"/>
<text text-anchor="start" x="317.73" y="-15.4" font-family="Times-12" font-size="14.00"> &#160;Module</text>
<polygon fill="#80b1d3" stroke="transparent" points="380,-10 380,-30 400,-30 400,-10 380,-10"/>
<text text-anchor="start" x="403.78" y="-15.4" font-family="Times-12" font-size="14.00"> &#160;Bootstrap</text>
<polygon fill="#fdb462" stroke="transparent" points="477,-10 477,-30 497,-30 497,-10 477,-10"/>
<text text-anchor="start" x="500.67" y="-15.4" font-family="Times-12" font-size="14.00"> &#160;Providers</text>
<polygon fill="#fb8072" stroke="transparent" points="573,-10 573,-30 593,-30 593,-10 573,-10"/>
<text text-anchor="start" x="596.73" y="-15.4" font-family="Times-12" font-size="14.00"> &#160;Exports</text>
<g id="clust1" class="cluster">
<title>cluster_LifecycleModule</title>
<polygon fill="none" stroke="black" stroke-dasharray="1,5" points="8,-70 8,-268 822,-268 822,-70 8,-70"/>
</g>
<g id="clust4" class="cluster">
<title>cluster_LifecycleModule_exports</title>
<polygon fill="none" stroke="black" points="315,-208 315,-260 445,-260 445,-208 315,-208"/>
</g>
<g id="clust6" class="cluster">
<title>cluster_LifecycleModule_providers</title>
<polygon fill="none" stroke="black" points="458,-78 458,-130 814,-130 814,-78 458,-78"/>
</g>
<g id="clust3" class="cluster">
<title>cluster_LifecycleModule_imports</title>
<polygon fill="none" stroke="black" points="16,-78 16,-130 450,-130 450,-78 16,-78"/>
</g>
<!-- BlockchainModule -->
<g id="node1" class="node">
<title>BlockchainModule</title>
<polygon fill="#8dd3c7" stroke="black" points="441.81,-122 438.81,-126 417.81,-126 414.81,-122 318.19,-122 318.19,-86 441.81,-86 441.81,-122"/>
<text text-anchor="middle" x="380" y="-99.8" font-family="Times,serif" font-size="14.00">BlockchainModule</text>
</g>
<!-- LifecycleModule -->
<g id="node4" class="node">
<title>LifecycleModule</title>
<polygon fill="#8dd3c7" stroke="black" points="436.4,-187 433.4,-191 412.4,-191 409.4,-187 323.6,-187 323.6,-151 436.4,-151 436.4,-187"/>
<text text-anchor="middle" x="380" y="-164.8" font-family="Times,serif" font-size="14.00">LifecycleModule</text>
</g>
<!-- BlockchainModule&#45;&gt;LifecycleModule -->
<g id="edge1" class="edge">
<title>BlockchainModule&#45;&gt;LifecycleModule</title>
<path fill="none" stroke="black" d="M380,-122.11C380,-122.11 380,-140.99 380,-140.99"/>
<polygon fill="black" stroke="black" points="376.5,-140.99 380,-150.99 383.5,-140.99 376.5,-140.99"/>
</g>
<!-- ContributionModule -->
<g id="node2" class="node">
<title>ContributionModule</title>
<polygon fill="#8dd3c7" stroke="black" points="300.61,-122 297.61,-126 276.61,-126 273.61,-122 169.39,-122 169.39,-86 300.61,-86 300.61,-122"/>
<text text-anchor="middle" x="235" y="-99.8" font-family="Times,serif" font-size="14.00">ContributionModule</text>
</g>
<!-- ContributionModule&#45;&gt;LifecycleModule -->
<g id="edge2" class="edge">
<title>ContributionModule&#45;&gt;LifecycleModule</title>
<path fill="none" stroke="black" d="M235,-122.02C235,-139.37 235,-163 235,-163 235,-163 313.52,-163 313.52,-163"/>
<polygon fill="black" stroke="black" points="313.52,-166.5 323.52,-163 313.52,-159.5 313.52,-166.5"/>
</g>
<!-- DistributionModule -->
<g id="node3" class="node">
<title>DistributionModule</title>
<polygon fill="#8dd3c7" stroke="black" points="151.71,-122 148.71,-126 127.71,-126 124.71,-122 24.29,-122 24.29,-86 151.71,-86 151.71,-122"/>
<text text-anchor="middle" x="88" y="-99.8" font-family="Times,serif" font-size="14.00">DistributionModule</text>
</g>
<!-- DistributionModule&#45;&gt;LifecycleModule -->
<g id="edge3" class="edge">
<title>DistributionModule&#45;&gt;LifecycleModule</title>
<path fill="none" stroke="black" d="M88,-122.28C88,-143.32 88,-175 88,-175 88,-175 313.7,-175 313.7,-175"/>
<polygon fill="black" stroke="black" points="313.7,-178.5 323.7,-175 313.7,-171.5 313.7,-178.5"/>
</g>
<!-- LifecycleService  -->
<g id="node5" class="node">
<title>LifecycleService </title>
<polygon fill="#fb8072" stroke="black" points="437.33,-252 322.67,-252 322.67,-216 437.33,-216 437.33,-252"/>
<text text-anchor="middle" x="380" y="-229.8" font-family="Times,serif" font-size="14.00">LifecycleService </text>
</g>
<!-- LifecycleModule&#45;&gt;LifecycleService  -->
<g id="edge4" class="edge">
<title>LifecycleModule&#45;&gt;LifecycleService </title>
<path fill="none" stroke="black" stroke-dasharray="5,2" d="M380,-187.11C380,-187.11 380,-205.99 380,-205.99"/>
<polygon fill="black" stroke="black" points="376.5,-205.99 380,-215.99 383.5,-205.99 376.5,-205.99"/>
</g>
<!-- LifecycleProcessor -->
<g id="node6" class="node">
<title>LifecycleProcessor</title>
<ellipse fill="#fdb462" stroke="black" cx="721" cy="-104" rx="85.07" ry="18"/>
<text text-anchor="middle" x="721" y="-99.8" font-family="Times,serif" font-size="14.00">LifecycleProcessor</text>
</g>
<!-- LifecycleProcessor&#45;&gt;LifecycleModule -->
<g id="edge5" class="edge">
<title>LifecycleProcessor&#45;&gt;LifecycleModule</title>
<path fill="none" stroke="black" d="M721,-122.28C721,-143.32 721,-175 721,-175 721,-175 446.31,-175 446.31,-175"/>
<polygon fill="black" stroke="black" points="446.31,-171.5 436.31,-175 446.31,-178.5 446.31,-171.5"/>
</g>
<!-- LifecycleService -->
<g id="node7" class="node">
<title>LifecycleService</title>
<ellipse fill="#fdb462" stroke="black" cx="542" cy="-104" rx="76.4" ry="18"/>
<text text-anchor="middle" x="542" y="-99.8" font-family="Times,serif" font-size="14.00">LifecycleService</text>
</g>
<!-- LifecycleService&#45;&gt;LifecycleModule -->
<g id="edge6" class="edge">
<title>LifecycleService&#45;&gt;LifecycleModule</title>
<path fill="none" stroke="black" d="M542,-122.02C542,-139.37 542,-163 542,-163 542,-163 446.21,-163 446.21,-163"/>
<polygon fill="black" stroke="black" points="446.21,-159.5 436.21,-163 446.21,-166.5 446.21,-159.5"/>
</g>
</g>
</svg>
